<svg xmlns="http://www.w3.org/2000/svg" width="16" height="16" viewBox="0 0 16 16"><path d="M10.987 3.86l.252.013a3.835 3.835 0 013.004 1.585 3.617 3.617 0 00-1.773 3.05c.001 1.411.866 2.684 2.197 3.233a7.981 7.981 0 01-1.143 2.272c-.673.983-1.379 1.944-2.5 1.961-1.087.025-1.453-.625-2.702-.625-1.26 0-1.65.608-2.693.65-1.067.039-1.882-1.05-2.58-2.023-1.394-1.989-2.48-5.604-1.024-8.065a4.01 4.01 0 013.366-2.004c1.068-.021 2.06.704 2.716.704.644 0 1.869-.868 3.132-.738zM11.253 0a3.52 3.52 0 01-.84 2.565 3.11 3.11 0 01-2.435 1.124c-.06-.902.25-1.79.86-2.47A3.771 3.771 0 0111.254 0z" fill="#474747" fill-rule="evenodd"/></svg>