<svg xmlns="http://www.w3.org/2000/svg" width="35" height="35" viewBox="0 0 35 35">
    <g fill="none" fill-rule="evenodd">
        <g>
            <g>
                <g>
                    <g fill="#474747">
                        <path d="M2.863 6.549l3.325 3.413c.25.255.272.66.049.955l-.049.056c-.249.255-.644.28-.93.05l-.055-.05L.69 6.34c-.25-.256-.273-.661-.049-.956L.69 5.33 5.203.695c.272-.279.713-.279.985 0 .25.256.272.661.049.956l-.049.055L2.863 5.12h7.607c.354 0 .651.26.706.64l.005.075c0 .396-.32.715-.71.715H2.862z" transform="translate(-1285 -2082) translate(240 2082) translate(1045) translate(11.667 11.667) rotate(-180 5.833 5.833)"/>
                    </g>
                    <path fill="#ECECEC" fill-rule="nonzero" d="M17.5 0C27.165 0 35 7.835 35 17.5S27.165 35 17.5 35 0 27.165 0 17.5 7.835 0 17.5 0zm0 1.458C8.64 1.458 1.458 8.64 1.458 17.5c0 8.86 7.182 16.042 16.042 16.042 8.86 0 16.042-7.182 16.042-16.042 0-8.86-7.182-16.042-16.042-16.042z" transform="translate(-1285 -2082) translate(240 2082) translate(1045)"/>
                </g>
            </g>
        </g>
    </g>
</svg>
