<svg xmlns="http://www.w3.org/2000/svg" width="14" height="15" viewBox="0 0 14 15"><path d="M9.362 1.25c.276 0 .5.253.5.565v.446h1.68c.46 0 .833.424.833.946v10.014c0 .523-.373.946-.833.946H1.934c-.46 0-.833-.423-.833-.946V3.207c0-.522.373-.945.833-.945l1.684-.001v-.446c0-.28.182-.514.42-.558l.08-.007c.276 0 .5.253.5.565v.446h4.243v-.446c0-.28.182-.514.42-.558zm2.225 5.208h-9.7v6.763c0 .03.021.053.047.053h9.608c.025 0 .046-.024.046-.053V6.458zm-7.025 4.435c.217 0 .393.2.393.446 0 .247-.176.447-.393.447H3.67c-.217 0-.393-.2-.393-.447 0-.246.176-.446.393-.446zm2.622 0c.217 0 .393.2.393.446 0 .247-.176.447-.393.447h-.892c-.217 0-.393-.2-.393-.447 0-.246.176-.446.393-.446zM4.562 7.917c.217 0 .393.2.393.446 0 .247-.176.447-.393.447H3.67c-.217 0-.393-.2-.393-.447 0-.246.176-.446.393-.446zm5.244 0c.217 0 .393.2.393.446 0 .247-.176.447-.393.447h-.892c-.217 0-.394-.2-.394-.447 0-.246.177-.446.394-.446zm-2.622 0c.217 0 .393.2.393.446 0 .247-.176.447-.393.447h-.892c-.217 0-.393-.2-.393-.447 0-.246.176-.446.393-.446zM3.618 3.154H1.934c-.026 0-.046.024-.046.053v2.298h9.7V3.207c0-.029-.02-.052-.046-.052l-1.68-.001v.447c0 .281-.182.514-.42.558l-.08.008c-.277 0-.5-.254-.5-.566v-.447H4.617v.447c0 .281-.181.514-.419.558l-.08.008c-.277 0-.5-.254-.5-.566v-.447z" fill="#474747" fill-rule="evenodd"/></svg>