<svg xmlns="http://www.w3.org/2000/svg" width="14" height="14" viewBox="0 0 14 14">
    <g fill="none" fill-rule="evenodd">
        <g>
            <g>
                <g>
                    <path fill="#474747" d="M11.821 10.5c-.158 0-.308-.064-.42-.18l-4.4-4.584-4.403 4.583c-.112.117-.261.181-.42.181-.158 0-.306-.064-.419-.18l-.419-.438c-.231-.24-.231-.632 0-.873l5.031-5.238c.168-.175.392-.27.63-.27.237 0 .46.096.628.27L12.66 9.01c.231.241.231.633 0 .873l-.42.437c-.111.117-.26.181-.419.181" transform="translate(-314 -4394) translate(65 4376) translate(249 18) rotate(-180 7 7)"/>
                    <path d="M0 0H14V14H0z" transform="translate(-314 -4394) translate(65 4376) translate(249 18)"/>
                </g>
            </g>
        </g>
    </g>
</svg>
