<svg xmlns="http://www.w3.org/2000/svg" viewBox="0 0 24 24">
  <defs/>
  <path fill="#62c3cc" fill-rule="evenodd" d="M20.797 15.022a.718.718 0 011.354.48 10.924 10.924 0 01-13.958 6.643.718.718 0 01.482-1.353 9.488 9.488 0 0012.122-5.77zm.99-6.135l.075.003a.72.72 0 01.426.2l-.078-.065a.721.721 0 01.21.24l.013.027c.01.02.02.041.027.063l.013.038a.702.702 0 01.032.212v2.921a.718.718 0 01-1.436 0v-1.159l-7.927 8.132a.718.718 0 01-.867.124l-.09-.06-2.45-1.915-4.852 4.485a.718.718 0 01-.975-1.054l5.302-4.9a.718.718 0 01.93-.038l2.423 1.894 7.52-7.713h-1.218a.718.718 0 01-.711-.62l-.007-.097c0-.397.322-.718.718-.718h2.922zM11.854.934c3.895 0 7.435 2.057 9.39 5.342l.15.26a.718.718 0 11-1.253.7l-.13-.225A9.484 9.484 0 103.949 17.095a.718.718 0 11-1.197.795 10.873 10.873 0 01-1.818-6.036c0-6.03 4.889-10.92 10.92-10.92zm-.157 4.139c.406 0 .735.283.735.629v.336l.151.052c.396.134.644.248.982.537a.547.547 0 01.221.435.595.595 0 01-.204.453c-.14.129-.327.2-.528.2a.776.776 0 01-.513-.183c-.312-.267-.52-.314-.844-.314-.52 0-.945.375-.945.837 0 .462.425.838.945.838.646 0 1.252.224 1.707.631.448.401.695.934.695 1.5 0 .865-.614 1.654-1.528 1.965l-.152.051v.35c0 .345-.33.627-.733.627-.406 0-.735-.282-.735-.628v-.351l-.155-.05c-.502-.162-.988-.477-1.405-.911a.569.569 0 01-.168-.451.617.617 0 01.26-.438.773.773 0 01.475-.155c.224 0 .43.083.568.225.358.381.77.591 1.16.591.52 0 .945-.376.945-.837 0-.462-.425-.838-.945-.838-1.325 0-2.401-.945-2.401-2.107 0-.865.613-1.654 1.526-1.965l.153-.052v-.348c0-.346.33-.63.733-.63z"/>
</svg>