<svg xmlns="http://www.w3.org/2000/svg" width="20" height="20" viewBox="0 0 20 20">
    <g fill="none" fill-rule="evenodd">
        <g fill="#474747" fill-rule="nonzero">
            <g>
                <g>
                    <g>
                        <g>
                            <path d="M16.875.833H3.125C1.861.833.833 1.861.833 3.125v13.75c0 1.264 1.028 2.292 2.292 2.292H10v-6.302H7.708V10H10V7.708c0-1.898 1.539-3.437 3.438-3.437h2.291v2.864h-1.146c-.632 0-1.146-.06-1.146.573V10h2.865l-1.146 2.865h-1.719v6.302h3.438c1.264 0 2.292-1.028 2.292-2.292V3.125c0-1.264-1.028-2.292-2.292-2.292z" transform="translate(-1321 -4787) translate(0 4528) translate(0 32) translate(1271 227) translate(50)"/>
                        </g>
                    </g>
                </g>
            </g>
        </g>
    </g>
</svg>
