<?xml version="1.0" encoding="UTF-8"?>
<svg width="24px" height="24px" viewBox="0 0 24 24" version="1.1" xmlns="http://www.w3.org/2000/svg" xmlns:xlink="http://www.w3.org/1999/xlink">
    <title>5246F406-EC3B-4145-9A64-76EFBA06D8B0</title>
    <g id="Page-1" stroke="none" stroke-width="1" fill="none" fill-rule="evenodd">
        <g id="KOKO_UI-KIT" transform="translate(-1029.000000, -5654.000000)" fill="#474747">
            <g id="Group-14" transform="translate(897.000000, 5654.000000)">
                <g id="Icons/funtion/doc" transform="translate(132.000000, 0.000000)">
                    <path d="M17.4468309,0 L22,4.53379387 L22,21.1914894 C22,22.7420053 20.7366293,24 19.1794872,24 L19.1794872,24 L4.82051282,24 C3.26337071,24 2,22.7420053 2,21.1914894 L2,21.1914894 L2,2.80851064 C2,1.25799466 3.26337071,0 4.82051282,0 L4.82051282,0 L17.4468309,0 Z M15.933,1.531 L4.82051282,1.53181277 C4.11303955,1.53181277 3.53846154,2.10404789 3.53846154,2.80851064 L3.53846154,2.80851064 L3.53846154,21.1914894 C3.53846154,21.8959521 4.11303955,22.4680851 4.82051282,22.4680851 L4.82051282,22.4680851 L19.1794872,22.4680851 C19.8869604,22.4680851 20.4615385,21.8959521 20.4615385,21.1914894 L20.4615385,21.1914894 L20.461,5.754 L15.9332308,5.75468936 L15.933,1.531 Z M17.471,2.19 L17.4707692,4.22185532 L19.511,4.222 L17.471,2.19 Z M18,10.7659574 C18,11.1889841 17.6570692,11.5319149 17.2340426,11.5319149 L6.76595745,11.5319149 C6.34293083,11.5319149 6,11.1889841 6,10.7659574 C6,10.3429308 6.34293083,10 6.76595745,10 L17.2340426,10 C17.6570692,10 18,10.3429308 18,10.7659574 Z M18,14.7659574 C18,15.1889841 17.6570692,15.5319149 17.2340426,15.5319149 L6.76595745,15.5319149 C6.34293083,15.5319149 6,15.1889841 6,14.7659574 C6,14.3429308 6.34293083,14 6.76595745,14 L17.2340426,14 C17.6570692,14 18,14.3429308 18,14.7659574 Z" id="🎨"></path>
                </g>
            </g>
        </g>
    </g>
</svg>