<svg xmlns="http://www.w3.org/2000/svg" width="36" height="36" viewBox="0 0 36 36">
    <g fill="none" fill-rule="evenodd">
        <g fill="#62C3CC">
            <g>
                <g>
                    <g>
                        <g>
                            <path d="M12.896 6.746c1.87 0 3.39 1.522 3.39 3.393l-.002 1.15c.3-.252.741-.34 1.191-.34 1.322 0 2.532.775 3.085 1.976.374-.309.934-.45 1.498-.45 1.321 0 2.532.438 3.084 1.64.375-.308.675-.53 1.845-.53 2.046 0 3.048 1.941 3.048 3.81v7.535c0 5.968-4.856 10.822-10.823 10.822-2.889 0-5.607-1.126-7.653-3.171l-2.512-2.288C7.438 28.686 6 26.896 6 24.615c0-2.282.594-4.035 2.202-5.642l1.325-1.326-.024-7.508c0-1.871 1.52-3.393 3.393-3.393zm.001 2.202c-.659 0-1.191.534-1.191 1.19v11.88c0 .608-.493 1.102-1.101 1.102-.607 0-1.101-.494-1.101-1.101l-.002-1.217c-1.029 1.158-1.3 2.254-1.3 3.813 0 1.689 1.209 2.927 2.402 4.12l2.514 2.289c1.628 1.626 3.793 2.525 6.094 2.525 4.755 0 8.622-3.866 8.622-8.62v-7.534c0-.655-.535-1.19-1.191-1.19-.659 0-1.191.196-1.191.851 0 .608-.494 1.101-1.101 1.101s-1.101-.493-1.101-1.101v-1.19c0-.655-.532-1.189-1.19-1.189-.655 0-1.19.534-1.19 1.19v.426c0 .607-.494 1.102-1.102 1.102-.607 0-1.102-.495-1.102-1.102V14.34c0-.657-.532-1.191-1.19-1.191-.655 0-1.19.534-1.19 1.19l-.002 3.056c0 .608-.493 1.101-1.1 1.101-.605 0-1.099-.493-1.099-1.1l.003-7.257c0-.657-.535-1.191-1.191-1.191zM6.947 1.73c.504-.29 1.148-.117 1.439.387l1.256 2.176c.291.504.12 1.149-.384 1.44-.504.29-1.148.117-1.439-.388L6.563 3.17c-.291-.505-.12-1.15.384-1.44zm9.872.387c.291-.504.935-.677 1.439-.387.503.29.675.935.384 1.44l-1.256 2.175c-.291.505-.935.678-1.439.387-.503-.29-.675-.935-.384-1.44zM12.602 0c.582 0 1.053.472 1.053 1.055v2.512c0 .582-.471 1.054-1.053 1.054-.58 0-1.052-.472-1.052-1.054V1.055C11.55.472 12.021 0 12.602 0z" transform="translate(-946 -645) translate(528 523) translate(408 110) translate(0 2) translate(10 10)"/>
                        </g>
                    </g>
                </g>
            </g>
        </g>
    </g>
</svg>
