<svg xmlns="http://www.w3.org/2000/svg" width="20" height="20" viewBox="0 0 20 20">
    <g fill="none" fill-rule="evenodd">
        <g fill="#62C3CC">
            <g>
                <g>
                    <path d="M10 0c5.523 0 10 4.477 10 10s-4.477 10-10 10S0 15.523 0 10 4.477 0 10 0zm0 1.25c-4.832 0-8.75 3.918-8.75 8.75s3.918 8.75 8.75 8.75 8.75-3.918 8.75-8.75S14.832 1.25 10 1.25zm3.088 6.1l1.573 3.625 1.566-3.625h1.294v5.385h-1.225v-2.698l-1.151 2.698h-.975l-1.151-2.698v2.698h-1.225V7.35h1.294zm-7.625-.003l2.06 5.386H6.21l-.453-1.248H3.96l-.453 1.248H2.195l2.06-5.386h1.208zm6.148 0v1.107H9.98v4.279H8.755v-4.28H7.125V7.349h4.486zm-6.75 1.65l-.509 1.41h1.014l-.504-1.41z" transform="translate(-716 -1732) translate(708 1724) translate(8 8)"/>
                </g>
            </g>
        </g>
    </g>
</svg>
