<svg xmlns="http://www.w3.org/2000/svg" width="32" height="32" viewBox="0 0 32 32">
    <defs>
        <filter id="amh2ryqsqa" width="221.9%" height="221.9%" x="-60.9%" y="-60.9%" filterUnits="objectBoundingBox">
            <feOffset dy="10" in="SourceAlpha" result="shadowOffsetOuter1"/>
            <feGaussianBlur in="shadowOffsetOuter1" result="shadowBlurOuter1" stdDeviation="5"/>
            <feColorMatrix in="shadowBlurOuter1" result="shadowMatrixOuter1" values="0 0 0 0 0.937254902 0 0 0 0 0.321568627 0 0 0 0 0.505882353 0 0 0 0.4 0"/>
            <feMerge>
                <feMergeNode in="shadowMatrixOuter1"/>
                <feMergeNode in="SourceGraphic"/>
            </feMerge>
        </filter>
    </defs>
    <g fill="none" fill-rule="evenodd">
        <g fill="#FFF" fill-rule="nonzero">
            <g>
                <g filter="url(#amh2ryqsqa)" transform="translate(-2207 -649) translate(528 523) translate(1663 110)">
                    <g>
                        <path d="M27.196 19.644c.173-.489.71-.745 1.199-.572.488.173.744.71.571 1.199-2.002 5.655-7.367 9.512-13.464 9.512-1.65 0-3.264-.281-4.788-.824-.489-.174-.743-.711-.57-1.2.175-.488.712-.743 1.2-.57 1.323.472 2.723.716 4.158.716 5.295 0 9.955-3.35 11.694-8.261zm1.294-8.023h.023l.05.002.058.007.06.01.044.01c.019.005.037.01.056.017l.052.018.049.021.056.028.033.019c.022.013.043.027.064.042.038.027.075.058.11.092l-.08-.07c.02.016.04.032.058.05l.022.02.005.005c.078.076.142.167.19.267l.016.038c.01.022.018.044.026.067l.009.03c.025.084.038.173.038.266l-.003-.077.001.025.002.052v3.82c0 .52-.42.94-.939.94-.518 0-.938-.42-.938-.94l-.001-1.514-10.366 10.632c-.306.314-.785.371-1.153.151l-.097-.067-3.204-2.504-6.346 5.866c-.38.352-.974.328-1.326-.052-.352-.381-.329-.975.052-1.327l6.932-6.408c.338-.312.853-.334 1.216-.05l3.17 2.478 9.833-10.087H24.67c-.482 0-.879-.362-.933-.829l-.006-.11c0-.518.42-.938.939-.938zm-12.989-10.4c5.094 0 9.723 2.69 12.28 6.987l.196.34c.253.452.091 1.024-.362 1.277-.452.253-1.024.09-1.277-.362l-.17-.295C23.945 5.434 19.927 3.1 15.5 3.1 8.651 3.1 3.1 8.652 3.1 15.502c0 2.473.725 4.838 2.064 6.853.287.432.17 1.015-.262 1.302-.432.287-1.015.17-1.302-.263-1.542-2.32-2.378-5.047-2.378-7.892 0-7.887 6.394-14.28 14.28-14.28zm-.204 5.413c.53 0 .96.37.96.822v.44l.198.068c.517.175.841.324 1.284.703.189.15.29.348.29.568 0 .23-.09.428-.267.592-.183.169-.429.262-.692.262-.256 0-.488-.083-.67-.24-.408-.349-.68-.41-1.103-.41-.682 0-1.237.49-1.237 1.094 0 .605.555 1.097 1.237 1.097.844 0 1.636.292 2.23.824.588.525.91 1.222.91 1.961 0 1.132-.803 2.164-1.998 2.57l-.198.068v.456c0 .452-.431.82-.96.82-.53 0-.96-.368-.96-.82v-.46l-.204-.065c-.655-.212-1.29-.624-1.837-1.192-.164-.172-.241-.382-.22-.59.024-.225.139-.418.342-.57.168-.132.389-.204.62-.204.292 0 .563.108.742.295.469.498 1.008.772 1.517.772.681 0 1.237-.492 1.237-1.095 0-.604-.556-1.095-1.237-1.095-1.732 0-3.14-1.237-3.14-2.755 0-1.132.802-2.164 1.997-2.57l.2-.068v-.456c0-.453.43-.822.959-.822z" transform="translate(16.308 16.308)"/>
                    </g>
                </g>
            </g>
        </g>
    </g>
</svg>
