<svg xmlns="http://www.w3.org/2000/svg" width="32" height="32" viewBox="0 0 32 32">
    <defs>
        <filter id="tgf4jrbmva" width="197.5%" height="197.5%" x="-48.8%" y="-48.8%" filterUnits="objectBoundingBox">
            <feOffset dy="10" in="SourceAlpha" result="shadowOffsetOuter1"/>
            <feGaussianBlur in="shadowOffsetOuter1" result="shadowBlurOuter1" stdDeviation="5"/>
            <feColorMatrix in="shadowBlurOuter1" result="shadowMatrixOuter1" values="0 0 0 0 0.937254902 0 0 0 0 0.321568627 0 0 0 0 0.505882353 0 0 0 0.4 0"/>
            <feMerge>
                <feMergeNode in="shadowMatrixOuter1"/>
                <feMergeNode in="SourceGraphic"/>
            </feMerge>
        </filter>
    </defs>
    <g fill="none" fill-rule="evenodd">
        <g fill="#FFF" fill-rule="nonzero">
            <g filter="url(#tgf4jrbmva)" transform="translate(-267 -2474) translate(243 2450)">
                <g>
                    <path d="M20.999 9.892v12.125H18.8l-.15-1.171c-.474.79-1.338 1.385-2.524 1.385-1.918 0-3.473-1.659-3.473-4.34 0-2.663 1.701-4.357 3.473-4.357 1.242 0 1.95.384 2.35.995V9.892H21zm5.435 3.643c2.6 0 4.25 1.65 4.25 4.34 0 2.598-1.75 4.34-4.25 4.34-2.599 0-4.248-1.65-4.248-4.34 0-2.525 1.764-4.34 4.248-4.34zM6.894 9.433l-.611 2.089s-1.1-.272-1.676.091c-.46.29-.517.764-.522.942v.063l.001.008v1.125h1.56v1.887h-1.56v6.385H1.564v-6.37H0v-1.891h1.565v-1.124c.003-.294.079-1.575 1.063-2.56 1.12-1.12 3.393-1.07 4.267-.645zm4.62 4.32v8.27h-.92v-3.62h-.66v3.62h-.919v-6.39H6.452v-1.88h5.062zm14.931 1.64c-1.06 0-1.648 1.061-1.648 2.486 0 1.427.57 2.485 1.648 2.485 1.04 0 1.648-.979 1.648-2.485 0-1.405-.563-2.485-1.648-2.485zm-9.494.123c-1.129 0-1.752 1.044-1.752 2.332 0 1.288.617 2.333 1.752 2.333.825 0 1.324-.537 1.527-1.413v-1.91c-.226-.862-.797-1.342-1.527-1.342zm13.685-2.982l.24.686.242-.686h.267v.958h-.173v-.773l-.26.773h-.15l-.263-.773v.773h-.172v-.958h.269zm-.428 0v.16H29.9v.798h-.186v-.798h-.308v-.16h.802zM10.262 9.716c.779 0 1.411.644 1.411 1.438 0 .794-.632 1.437-1.411 1.437-.78 0-1.41-.643-1.41-1.437s.63-1.438 1.41-1.438z" transform="translate(24.308 24.308)"/>
                </g>
            </g>
        </g>
    </g>
</svg>
