<svg xmlns="http://www.w3.org/2000/svg" width="36" height="36" viewBox="0 0 36 36">
    <g fill="none" fill-rule="evenodd">
        <g fill="#62C3CC">
            <g>
                <g>
                    <g>
                        <path d="M18 0c9.941 0 18 8.059 18 18s-8.059 18-18 18S0 27.941 0 18 8.059 0 18 0zm0 2.25C9.302 2.25 2.25 9.302 2.25 18S9.302 33.75 18 33.75 33.75 26.698 33.75 18 26.698 2.25 18 2.25zm5.558 10.98l2.831 6.524 2.82-6.524h2.329v9.693h-2.205v-4.856l-2.072 4.856h-1.754l-2.073-4.856v4.856H21.23V13.23h2.328zm-13.724-.005l3.706 9.694h-2.362l-.815-2.246H7.13l-.816 2.246H3.952l3.706-9.694h2.176zm11.066 0v1.991h-2.936v7.703H15.76v-7.703h-2.935v-1.99H20.9zM8.75 16.194l-.916 2.54H9.66l-.908-2.54z" transform="translate(-538 -322) translate(528 200) translate(0 112) translate(10 10)"/>
                    </g>
                </g>
            </g>
        </g>
    </g>
</svg>
