<svg xmlns="http://www.w3.org/2000/svg" width="32" height="32" viewBox="0 0 32 32">
    <defs>
        <filter id="sp9qakhyka" width="221.9%" height="221.9%" x="-60.9%" y="-60.9%" filterUnits="objectBoundingBox">
            <feOffset dy="10" in="SourceAlpha" result="shadowOffsetOuter1"/>
            <feGaussianBlur in="shadowOffsetOuter1" result="shadowBlurOuter1" stdDeviation="5"/>
            <feColorMatrix in="shadowBlurOuter1" result="shadowMatrixOuter1" values="0 0 0 0 0.937254902 0 0 0 0 0.321568627 0 0 0 0 0.505882353 0 0 0 0.4 0"/>
            <feMerge>
                <feMergeNode in="shadowMatrixOuter1"/>
                <feMergeNode in="SourceGraphic"/>
            </feMerge>
        </filter>
    </defs>
    <g fill="none" fill-rule="evenodd">
        <g fill="#FFF" fill-rule="nonzero">
            <g filter="url(#sp9qakhyka)" transform="translate(-2415 -649) translate(2399 633)">
                <g>
                    <path d="M11.242 5.88c1.63 0 2.956 1.328 2.956 2.959l-.002 1.002c.262-.22.646-.297 1.039-.297 1.152 0 2.207.677 2.69 1.724.325-.27.813-.392 1.305-.392 1.152 0 2.207.382 2.688 1.429.327-.268.59-.462 1.61-.462 1.783 0 2.656 1.693 2.656 3.322v6.568c0 5.204-4.233 9.435-9.435 9.435-2.519 0-4.888-.982-6.672-2.764l-2.19-1.995c-1.402-1.4-2.656-2.96-2.656-4.95 0-1.989.518-3.518 1.92-4.918l1.154-1.156-.02-6.546c0-1.631 1.325-2.958 2.957-2.958zm.002 1.92c-.575 0-1.039.466-1.039 1.039v10.357c0 .53-.43.96-.96.96s-.96-.43-.96-.96v-1.061c-.898 1.01-1.135 1.965-1.135 3.324 0 1.473 1.054 2.552 2.094 3.593l2.192 1.995c1.42 1.417 3.307 2.2 5.313 2.2 4.145 0 7.517-3.37 7.517-7.514v-6.568c0-.572-.467-1.037-1.039-1.037-.574 0-1.038.17-1.038.741 0 .53-.43.96-.96.96s-.96-.43-.96-.96v-1.037c0-.571-.464-1.037-1.037-1.037-.571 0-1.038.466-1.038 1.037v.372c0 .53-.43.96-.96.96s-.961-.43-.961-.96V12.5c0-.573-.464-1.038-1.037-1.038-.572 0-1.038.465-1.038 1.038l-.002 2.664c0 .53-.43.96-.958.96-.529 0-.959-.43-.959-.96l.003-6.326c0-.573-.467-1.039-1.038-1.039zM6.056 1.508c.44-.253 1-.102 1.255.338l1.095 1.896c.254.44.104 1.002-.335 1.255-.439.254-1 .103-1.254-.337L5.722 2.763c-.254-.44-.104-1.001.334-1.255zm8.607.338c.254-.44.815-.591 1.254-.338.439.254.589.816.335 1.255L15.157 4.66c-.254.44-.816.59-1.254.337-.44-.253-.59-.815-.335-1.255zM10.987 0c.506 0 .917.412.917.92v2.19c0 .507-.41.919-.917.919-.507 0-.918-.412-.918-.92V.92c0-.507.411-.919.918-.919z" transform="translate(16.308 16.308)"/>
                </g>
            </g>
        </g>
    </g>
</svg>
