<svg xmlns="http://www.w3.org/2000/svg" width="36" height="36" viewBox="0 0 36 36">
    <g fill="none" fill-rule="evenodd">
        <g fill="#62C3CC">
            <g>
                <g>
                    <g>
                        <g>
                            <path d="M7.682 6.623l.03.115.851 4.32c.109.552-.25 1.088-.8 1.197-.513.102-1.013-.204-1.165-.694l-.028-.108-.38-1.924c-3.214 4.564-3.574 10.706-.684 15.724 4.022 6.984 12.893 9.396 19.813 5.39.486-.28 1.107-.114 1.388.373.28.487.114 1.11-.372 1.391-7.894 4.569-18.006 1.82-22.588-6.136-3.283-5.7-2.883-12.675.755-17.875l-1.91.367c-.552.105-1.084-.257-1.19-.809-.097-.515.21-1.014.7-1.165l.108-.026 4.315-.828c.51-.097 1.003.205 1.157.688zM32.328 9.73c3.278 5.691 2.886 12.658-.743 17.858l1.824-.35c.55-.105 1.083.257 1.188.809.098.515-.21 1.014-.699 1.165l-.108.026-4.315.828c-.51.097-1.003-.205-1.157-.688l-.03-.115-.851-4.32c-.109-.552.25-1.088.8-1.197.513-.102 1.013.204 1.165.694l.028.108.395 2.008c3.27-4.575 3.65-10.761.744-15.808-4.022-6.984-12.894-9.396-19.813-5.39-.486.28-1.107.114-1.388-.373-.28-.487-.114-1.11.372-1.391 7.894-4.569 18.006-1.82 22.588 6.136zm-14.263.876c.66 0 1.197.467 1.197 1.04v.557l.249.085c.644.22 1.047.41 1.599.888.236.193.362.442.362.72 0 .29-.112.542-.333.748-.229.214-.536.331-.864.331-.318 0-.607-.104-.835-.301-.508-.442-.848-.52-1.375-.52-.85 0-1.542.621-1.542 1.385s.692 1.385 1.542 1.385c1.053 0 2.041.371 2.782 1.044.731.664 1.134 1.545 1.134 2.48 0 1.431-1.001 2.738-2.49 3.252l-.249.086v.575c0 .574-.537 1.04-1.197 1.04s-1.196-.466-1.196-1.04v-.58l-.254-.083c-.819-.267-1.611-.788-2.293-1.507-.203-.218-.3-.483-.272-.745.028-.287.171-.53.425-.724.21-.166.485-.257.774-.257.365 0 .702.136.924.373.585.63 1.257.977 1.892.977.85 0 1.542-.622 1.542-1.386 0-.764-.692-1.385-1.542-1.385-2.159 0-3.915-1.564-3.915-3.485 0-1.43 1-2.737 2.49-3.252l.248-.085v-.576c0-.573.537-1.04 1.197-1.04z" transform="translate(-1353 -322) translate(528 200) translate(0 112) translate(815) translate(10 10)"/>
                        </g>
                    </g>
                </g>
            </g>
        </g>
    </g>
</svg>
