<svg xmlns="http://www.w3.org/2000/svg" width="32" height="32" viewBox="0 0 32 32">
    <defs>
        <filter id="c9eojxbl4a" width="221.9%" height="221.9%" x="-60.9%" y="-60.9%" filterUnits="objectBoundingBox">
            <feOffset dy="10" in="SourceAlpha" result="shadowOffsetOuter1"/>
            <feGaussianBlur in="shadowOffsetOuter1" result="shadowBlurOuter1" stdDeviation="5"/>
            <feColorMatrix in="shadowBlurOuter1" result="shadowMatrixOuter1" values="0 0 0 0 0.937254902 0 0 0 0 0.321568627 0 0 0 0 0.505882353 0 0 0 0.4 0"/>
            <feMerge>
                <feMergeNode in="shadowMatrixOuter1"/>
                <feMergeNode in="SourceGraphic"/>
            </feMerge>
        </filter>
    </defs>
    <g fill="none" fill-rule="evenodd">
        <g fill="#FFF" fill-rule="nonzero">
            <g filter="url(#c9eojxbl4a)" transform="translate(-2311 -649) translate(2295 633)">
                <g>
                    <path d="M15.531 1.207c4.607 0 8.843 2.194 11.516 5.807l.156-.004c1.64 0 2.975 1.335 2.975 2.976 0 .767-.292 1.466-.77 1.994.295 1.148.444 2.339.444 3.55 0 7.91-6.411 14.324-14.321 14.324-7.911 0-14.324-6.413-14.324-14.324 0-7.91 6.413-14.323 14.324-14.323zm10.312 11.425l-6.86 6.749c.184.386.287.818.287 1.274 0 1.641-1.335 2.977-2.975 2.977-1.64 0-2.975-1.336-2.975-2.977 0-.477.113-.928.314-1.328l-3.41-3.477c-.45.275-.979.434-1.544.434-.544 0-1.054-.147-1.494-.403l-3.485 3.551c1.638 4.967 6.315 8.551 11.83 8.551 6.877 0 12.45-5.575 12.45-12.453 0-.889-.091-1.763-.273-2.613-.164.03-.333.044-.505.044-.49 0-.952-.119-1.36-.33zm-9.548 6.845c-.65 0-1.179.527-1.179 1.178 0 .652.528 1.182 1.18 1.182.65 0 1.178-.53 1.178-1.182 0-.651-.527-1.178-1.179-1.178zm-.764-16.4c-6.878 0-12.453 5.576-12.453 12.453 0 .592.04 1.174.12 1.744l2.746-2.798c-.154-.36-.239-.755-.239-1.17 0-1.64 1.334-2.973 2.975-2.973 1.64 0 2.974 1.333 2.974 2.973 0 .393-.077.768-.215 1.111l3.515 3.584c.403-.204.86-.32 1.341-.32.504 0 .979.126 1.395.348l6.842-6.733c-.195-.395-.304-.84-.304-1.31 0-.893.395-1.696 1.02-2.242-2.334-2.914-5.876-4.666-9.717-4.666zm-6.85 9.051c-.653 0-1.18.527-1.18 1.178 0 .653.527 1.182 1.18 1.182.65 0 1.177-.53 1.177-1.182 0-.65-.527-1.178-1.178-1.178zm18.522-3.322c-.652 0-1.18.528-1.18 1.18 0 .651.528 1.18 1.18 1.18.65 0 1.179-.529 1.179-1.18 0-.652-.528-1.18-1.18-1.18z" transform="translate(16.308 16.308)"/>
                </g>
            </g>
        </g>
    </g>
</svg>
