<svg xmlns="http://www.w3.org/2000/svg" width="36" height="36" viewBox="0 0 36 36">
    <g fill="none" fill-rule="evenodd">
        <g fill="#62C3CC">
            <g>
                <g>
                    <g>
                        <g>
                            <path d="M31.196 22.533c.198-.561.814-.855 1.374-.656.56.199.854.814.656 1.375-2.297 6.486-8.45 10.91-15.445 10.91-1.893 0-3.743-.322-5.492-.945-.56-.2-.852-.815-.653-1.375.2-.56.816-.853 1.376-.654 1.517.54 3.124.82 4.77.82 6.074 0 11.419-3.842 13.414-9.475zm1.484-9.203h.035l.081.006.03.004c.027.003.053.008.079.013.077.017.15.041.22.073.046.02.089.044.13.07.025.016.049.032.072.05.036.027.07.057.104.09l-.075-.068c.023.02.046.039.068.06l.007.007.012.012c.022.022.044.045.064.07l.019.023c.018.023.036.048.053.073l.016.026c.013.02.024.04.035.06.01.018.018.035.026.053.01.02.018.039.026.059l.014.04c.01.026.018.052.025.078l.008.036c.019.078.028.159.028.242v4.383c0 .594-.482 1.076-1.077 1.076-.594 0-1.077-.482-1.077-1.076v-1.737l-11.89 12.195c-.355.363-.909.426-1.332.168l-.103-.072-3.674-2.872-7.28 6.728c-.436.404-1.118.377-1.521-.06-.404-.436-.377-1.118.06-1.522l7.951-7.35c.388-.358.979-.382 1.395-.057l3.635 2.842 11.28-11.57h-1.826c-.556 0-1.013-.42-1.071-.959l-.006-.117c0-.595.482-1.077 1.077-1.077h4.382zM17.781 1.4c5.843 0 11.152 3.085 14.086 8.014l.224.39c.29.518.105 1.174-.415 1.464-.519.29-1.175.105-1.465-.415l-.195-.338c-2.55-4.282-7.16-6.961-12.235-6.961-7.857 0-14.227 6.37-14.227 14.227 0 2.836.833 5.549 2.369 7.86.329.496.194 1.165-.302 1.494-.495.329-1.163.194-1.493-.301-1.768-2.663-2.727-5.79-2.727-9.053C1.4 8.735 8.734 1.4 17.78 1.4zm-.235 6.208c.608 0 1.102.424 1.102.943v.505l.227.078c.593.201.965.372 1.472.806.217.174.333.4.333.652 0 .264-.102.49-.306.679-.21.194-.492.3-.793.3-.295 0-.56-.095-.77-.274-.468-.4-.78-.47-1.265-.47-.781 0-1.418.562-1.418 1.254 0 .694.637 1.258 1.418 1.258.97 0 1.877.335 2.56.946.673.602 1.043 1.4 1.043 2.249 0 1.299-.921 2.482-2.293 2.948l-.227.078v.523c0 .519-.494.941-1.1.941-.608 0-1.102-.422-1.102-.941v-.528l-.234-.074c-.752-.243-1.48-.716-2.107-1.367-.188-.198-.277-.439-.252-.676.027-.26.159-.481.392-.656.192-.15.446-.233.711-.233.335 0 .646.123.851.338.538.571 1.156.886 1.74.886.782 0 1.419-.564 1.419-1.257 0-.692-.637-1.256-1.418-1.256-1.987 0-3.602-1.418-3.602-3.16 0-1.298.92-2.482 2.29-2.948l.229-.078v-.523c0-.519.494-.943 1.1-.943z" transform="translate(-1353 -645) translate(528 523) translate(408 110) translate(407 2) translate(10 10)"/>
                        </g>
                    </g>
                </g>
            </g>
        </g>
    </g>
</svg>
