<svg xmlns="http://www.w3.org/2000/svg" width="32" height="32" viewBox="0 0 32 32">
    <defs>
        <filter id="dgn7a3k8ra" width="197.5%" height="197.5%" x="-48.8%" y="-48.8%" filterUnits="objectBoundingBox">
            <feOffset dy="10" in="SourceAlpha" result="shadowOffsetOuter1"/>
            <feGaussianBlur in="shadowOffsetOuter1" result="shadowBlurOuter1" stdDeviation="5"/>
            <feColorMatrix in="shadowBlurOuter1" result="shadowMatrixOuter1" values="0 0 0 0 0.937254902 0 0 0 0 0.321568627 0 0 0 0 0.505882353 0 0 0 0.4 0"/>
            <feMerge>
                <feMergeNode in="shadowMatrixOuter1"/>
                <feMergeNode in="SourceGraphic"/>
            </feMerge>
        </filter>
    </defs>
    <g fill="none" fill-rule="evenodd">
        <g fill="#FFF" fill-rule="nonzero">
            <g filter="url(#dgn7a3k8ra)" transform="translate(-980 -2377) translate(956 2353)">
                <g>
                    <path d="M26.819 1.308c1.796 0 3.258 1.458 3.258 3.25V7.32c0 1.792-1.462 3.25-3.258 3.25h-4.38l-.707.591c.8 1.532 1.238 3.239 1.238 4.977 0 3.342-1.53 6.334-3.928 8.317 2.21 1.592 2.466 4.523 2.477 4.658.038.492-.332.923-.828.961-.023.002-.046.003-.07.003-.464 0-.857-.356-.894-.825-.003-.049-.247-2.607-2.118-3.586-.062-.031-.105-.082-.156-.125-1.572.886-3.383 1.4-5.314 1.4-1.915 0-3.712-.503-5.275-1.376-.043.033-.076.075-.125.101-1.9.992-2.117 3.557-2.12 3.583-.035.47-.429.828-.894.828-.023 0-.047-.001-.07-.003-.493-.038-.864-.468-.827-.961.01-.134.264-3.033 2.44-4.63-2.415-1.983-3.96-4.987-3.96-8.345 0-5.956 4.859-10.802 10.83-10.802.882 0 1.752.121 2.601.33V4.558c0-1.792 1.462-3.25 3.258-3.25zm-14.68 5.82c-4.982 0-9.034 4.042-9.034 9.01s4.052 9.01 9.034 9.01c4.981 0 9.034-4.042 9.034-9.01 0-1.315-.305-2.607-.856-3.79l-.899.752c-.165.14-.371.21-.577.21-.151 0-.304-.037-.442-.116-.326-.183-.504-.548-.447-.917l.265-1.708h-.22c-1.745 0-3.163-1.379-3.243-3.101-.066-.002-.13.005-.197-.014-.784-.216-1.597-.326-2.418-.326zM7.848 14.11l.118.013c.052.009 5.17.898 7.356.84.26.006.514.101.688.296.175.192.256.453.225.711-.012.09-.298 2.208-1.912 3.421-.728.546-1.587.82-2.567.82-.29 0-.589-.024-.899-.072-1.388-.215-2.44-.81-3.134-1.765-1.113-1.54-.81-3.436-.796-3.516.038-.236.17-.446.366-.584.196-.138.437-.193.673-.151zm.84 1.948c.104.864.6 2.024 2.446 2.31.87.135 1.56.002 2.108-.409.447-.336.736-.812.918-1.237-1.785-.108-4.14-.453-5.472-.664zm5.88-5.437c.62 0 1.123.501 1.123 1.121 0 .618-.502 1.12-1.123 1.12s-1.123-.502-1.123-1.12c0-.62.502-1.12 1.123-1.12zm-4.309 0c.622 0 1.123.501 1.123 1.121 0 .618-.501 1.12-1.123 1.12-.62 0-1.123-.502-1.123-1.12 0-.62.502-1.12 1.123-1.12zm16.56-7.52h-8.822c-.805 0-1.461.654-1.461 1.457V7.32c0 .804.656 1.458 1.46 1.458h1.074c.329 0 .633.147.837.404.193.243.27.552.211.855l-.024.156L21.36 9.13c.364-.25.7-.353 1.048-.353h4.411c.805 0 1.46-.654 1.46-1.458V4.558c0-.803-.655-1.458-1.46-1.458zm-7.712 1.723c.57 0 1.03.46 1.03 1.028 0 .568-.46 1.028-1.03 1.028-.57 0-1.031-.46-1.031-1.028 0-.568.462-1.028 1.03-1.028zm6.602 0c.57 0 1.031.46 1.031 1.028 0 .568-.462 1.028-1.031 1.028s-1.031-.46-1.031-1.028c0-.568.462-1.028 1.03-1.028zm-3.301 0c.57 0 1.031.46 1.031 1.028 0 .568-.462 1.028-1.031 1.028s-1.031-.46-1.031-1.028c0-.568.462-1.028 1.03-1.028z" transform="translate(24.308 24.308)"/>
                </g>
            </g>
        </g>
    </g>
</svg>
