<svg xmlns="http://www.w3.org/2000/svg" width="32" height="32" viewBox="0 0 32 32">
    <defs>
        <filter id="kebz1sp9ra" width="197.5%" height="197.5%" x="-48.8%" y="-48.8%" filterUnits="objectBoundingBox">
            <feOffset dy="10" in="SourceAlpha" result="shadowOffsetOuter1"/>
            <feGaussianBlur in="shadowOffsetOuter1" result="shadowBlurOuter1" stdDeviation="5"/>
            <feColorMatrix in="shadowBlurOuter1" result="shadowMatrixOuter1" values="0 0 0 0 0.937254902 0 0 0 0 0.321568627 0 0 0 0 0.505882353 0 0 0 0.4 0"/>
            <feMerge>
                <feMergeNode in="shadowMatrixOuter1"/>
                <feMergeNode in="SourceGraphic"/>
            </feMerge>
        </filter>
    </defs>
    <g fill="none" fill-rule="evenodd">
        <g fill="#FFF" fill-rule="nonzero">
            <g filter="url(#kebz1sp9ra)" transform="translate(-387 -2377) translate(363 2353)">
                <g>
                    <path d="M2.327 19.315c.563 0 1.02.458 1.02 1.02 0 4.247 3.456 7.702 7.702 7.702.563 0 1.02.458 1.02 1.02s-.457 1.02-1.02 1.02c-5.37 0-9.741-4.37-9.741-9.742 0-.562.457-1.02 1.019-1.02zm26.73 0c.563 0 1.02.458 1.02 1.02 0 5.372-4.37 9.742-9.741 9.742-.562 0-1.02-.458-1.02-1.02s.458-1.02 1.02-1.02c4.246 0 7.701-3.455 7.701-7.701 0-.563.458-1.02 1.02-1.02zm-6.671-3.588c.275 0 .543.114.734.313.191.199.294.471.284.747-.166 4.159-3.553 7.416-7.712 7.416-4.157 0-7.544-3.257-7.71-7.416-.012-.275.091-.548.282-.747.192-.2.46-.313.736-.313zm-1.16 2.039H10.158c.594 2.593 2.859 4.397 5.533 4.397 2.675 0 4.94-1.804 5.533-4.397zm-5.323-8.129c.563 0 1.02.457 1.02 1.02v1.578c0 .563-.457 1.02-1.02 1.02h-.548c-.563 0-1.02-.457-1.02-1.02 0-.378.214-.729.55-.903v-.675c0-.563.456-1.02 1.018-1.02zM11.05 1.308c.562 0 1.019.457 1.019 1.02 0 .561-.457 1.018-1.02 1.018-4.246 0-7.702 3.456-7.702 7.703 0 .562-.457 1.019-1.02 1.019-.562 0-1.02-.457-1.02-1.019 0-5.371 4.37-9.74 9.743-9.74zm9.286 0c5.371 0 9.74 4.37 9.74 9.741 0 .562-.456 1.02-1.018 1.02-.563 0-1.02-.458-1.02-1.02 0-4.247-3.455-7.703-7.702-7.703-.563 0-1.02-.457-1.02-1.019 0-.562.457-1.02 1.02-1.02zM19.144 7.9c.126-.029.29-.03.425.001.067.01.135.033.201.057.067.029.129.063.188.103.061.043.117.086.166.136.047.043.09.096.137.165.04.058.071.123.1.188.03.072.051.14.063.205.014.066.022.136.022.215 0 .289-.117.57-.322.771-.05.05-.105.096-.164.137-.06.037-.123.072-.187.1-.067.027-.134.046-.206.062-.07.013-.142.022-.213.022-.285 0-.567-.117-.774-.321-.203-.203-.318-.484-.318-.77 0-.29.115-.572.317-.775.055-.05.109-.095.17-.134.059-.04.12-.074.186-.102.054-.021.127-.047.209-.06zm-7.324 0c.33-.072.73.044.982.296.05.051.097.107.137.166.038.06.073.125.1.19.028.065.046.133.062.2.016.071.022.141.022.218 0 .286-.117.567-.32.77-.05.05-.106.097-.164.137-.064.04-.125.074-.19.1-.064.028-.132.047-.204.063-.069.013-.141.022-.213.022-.072 0-.144-.009-.215-.021-.07-.016-.14-.035-.205-.063-.064-.028-.13-.062-.188-.099-.061-.042-.116-.088-.166-.139-.203-.202-.319-.483-.319-.77 0-.289.116-.571.319-.773.05-.05.105-.094.164-.135.056-.038.12-.073.193-.103.065-.025.134-.047.205-.06z" transform="translate(24.308 24.308)"/>
                </g>
            </g>
        </g>
    </g>
</svg>
