<svg xmlns="http://www.w3.org/2000/svg" width="32" height="32" viewBox="0 0 32 32">
    <defs>
        <filter id="68cc63o4ka" width="197.5%" height="197.5%" x="-48.8%" y="-48.8%" filterUnits="objectBoundingBox">
            <feOffset dy="10" in="SourceAlpha" result="shadowOffsetOuter1"/>
            <feGaussianBlur in="shadowOffsetOuter1" result="shadowBlurOuter1" stdDeviation="5"/>
            <feColorMatrix in="shadowBlurOuter1" result="shadowMatrixOuter1" values="0 0 0 0 0.937254902 0 0 0 0 0.321568627 0 0 0 0 0.505882353 0 0 0 0.4 0"/>
            <feMerge>
                <feMergeNode in="shadowMatrixOuter1"/>
                <feMergeNode in="SourceGraphic"/>
            </feMerge>
        </filter>
    </defs>
    <g fill="none" fill-rule="evenodd">
        <g fill="#FFF" fill-rule="nonzero">
            <g filter="url(#68cc63o4ka)" transform="translate(-427 -2572) translate(403 2548)">
                <g>
                    <path d="M14.196 1.23c.316 0 .65.018 1.053.054.168.014.334.03.498.05l.077.011c5.198.66 9.56 4.521 10.85 9.608l.045.171c.05.212.1.424.14.64.057.299.102.599.137.9.01.08.031.332.031.332.04.42.058.787.058 1.123 0 .25-.008.497-.022.744-.004.072-.01.145-.018.217l-.022.26c-.007.086-.013.172-.023.257-.008.075-.065.46-.065.46-.011.087-.024.174-.038.261-.017.097-.037.194-.058.29l-.084.416c-.028.115-.059.23-.09.345l-.006.024.228.107c2.253 1.112 3.809 3.43 3.809 6.107 0 3.756-3.056 6.812-6.813 6.812-2.717 0-5.061-1.603-6.154-3.91-.325.094-.655.175-.989.243-.267.054-.51.093-.754.127l-.098.017c-.233.03-.469.052-.706.07l-.133.013c-.282.019-.567.029-.853.029-.286 0-.57-.01-.853-.03l-.131-.012c-.239-.018-.474-.04-.707-.07l-.098-.017c-.244-.034-.487-.073-.727-.121-1.336-.271-2.592-.738-3.76-1.392l-.18.013c-.024.018-.045.038-.066.058-.023.021-.043.041-.062.05-2.379 1.246-2.637 4.429-2.64 4.461-.036.476-.438.85-.915.85h-.093l-.058-.004c-.25-.02-.471-.132-.632-.318-.16-.187-.237-.424-.219-.669.013-.146.332-3.638 2.92-5.506l.008-.259c-.357-.295-.7-.612-1.02-.941-.162-.168-.319-.337-.47-.511-.157-.179-.302-.355-.443-.534-.157-.204-.288-.379-.414-.559l-.034-.051c-.12-.173-.238-.35-.35-.53l-.047-.078c-.105-.171-.209-.346-.306-.523l-.056-.107c-.09-.17-.18-.34-.266-.516l-.06-.134c-.078-.166-.156-.335-.227-.507l-.065-.169c-.065-.163-.13-.325-.188-.49l-.085-.26c-.046-.138-.092-.276-.133-.416l-.082-.31c-.034-.126-.069-.253-.099-.383-.014-.059-.025-.119-.036-.178l-.045-.22c-.021-.102-.043-.205-.062-.308-.005-.03-.02-.127-.036-.242l-.034-.238-.033-.241c-.01-.09-.017-.18-.024-.27l-.02-.234c-.007-.076-.014-.153-.019-.23-.014-.246-.021-.494-.021-.743 0-.333.018-.69.057-1.123l.03-.332c.036-.301.081-.601.139-.899.04-.217.09-.43.14-.643l.043-.166c1.291-5.09 5.652-8.951 10.852-9.61l.076-.012c.165-.02.33-.036.496-.05.404-.036.739-.053 1.055-.053zm9.687 17.295c-2.802 0-5.082 2.28-5.082 5.082 0 2.803 2.28 5.083 5.082 5.083s5.083-2.28 5.083-5.083c0-2.803-2.28-5.082-5.083-5.082zm.03 1.514c.509.032.913.45.913.96v1.666h1.666c.51 0 .927.405.959.912v.059c-.032.509-.45.913-.96.913h-1.665v1.666c0 .51-.404.929-.914.959v.001h-.057c-.51-.031-.914-.45-.914-.96V24.55h-1.666c-.51 0-.928-.404-.96-.913v-.059c.032-.507.45-.912.96-.912h1.666V21c0-.51.405-.928.914-.96h.057zm-9.717-16.97c-.307 0-.628.016-1.008.052l-.236.024c-3.784.426-7.143 2.848-8.764 6.32-.69 1.505-1.041 3.067-1.041 4.654 0 6.093 4.956 11.05 11.05 11.05 1.032 0 2.029-.153 2.977-.42v.001l-.042-.28c-.038-.283-.061-.57-.061-.863 0-3.756 3.056-6.812 6.812-6.812.34 0 .673.033 1 .082.228-.884.362-1.804.362-2.758 0-1.588-.35-3.15-1.043-4.644-1.619-3.482-4.977-5.904-8.763-6.33l-.228-.024c-.387-.036-.707-.051-1.015-.051zm5.214 8.762c.191 0 .374.059.53.17.2.14.337.359.376.598.015.094.364 2.33-.93 4.124-.81 1.12-2.045 1.815-3.671 2.068-.363.057-.719.087-1.058.087-1.14 0-2.148-.323-2.994-.96-1.883-1.417-2.227-3.917-2.24-4.023-.034-.264.05-.531.23-.73.17-.189.422-.296.711-.303.078.002.167.004.26.004.823 0 1.91-.089 3.032-.213l.52-.06c1.735-.207 3.476-.482 4.401-.634l.252-.042.384-.066.042-.007c.05-.008.103-.013.155-.013zm-1.081 2.03c-1.523.242-4.403.668-6.579.8l-.14.228c.29.675.68 1.2 1.16 1.561.525.396 1.143.588 1.89.588.243 0 .502-.02.772-.062 2.421-.378 2.972-2 3.086-2.934zm-7.06-6.244c.657 0 1.19.534 1.19 1.19 0 .656-.533 1.19-1.19 1.19-.656 0-1.19-.534-1.19-1.19 0-.656.534-1.19 1.19-1.19zm5.192 0c.656 0 1.19.534 1.19 1.19 0 .656-.534 1.19-1.19 1.19-.656 0-1.19-.534-1.19-1.19 0-.656.534-1.19 1.19-1.19z" transform="translate(24.308 24.308)"/>
                </g>
            </g>
        </g>
    </g>
</svg>
