<svg xmlns="http://www.w3.org/2000/svg" width="20" height="20" viewBox="0 0 20 20">
    <g fill="none" fill-rule="evenodd">
        <g fill="#62C3CC">
            <g>
                <g>
                    <path d="M10.102.934c.188-.134.441-.134.629 0 2.458 1.753 4.591 2.737 7.135 3.288.247.054.424.271.427.525.003.267.009.584.019 1.068.012.606.02 1.084.021 1.494-.003.699-.025 1.257-.072 1.871-.4 5.236-2.693 8.214-7.665 9.956-.058.02-.119.03-.18.03-.06 0-.12-.01-.178-.03-4.973-1.743-7.265-4.72-7.666-9.956-.047-.615-.068-1.173-.072-1.865.002-.417.01-.894.022-1.5.01-.484.016-.801.019-1.068.002-.254.18-.471.427-.525C5.51 3.671 7.645 2.687 10.102.934zm.315 1.106c-2.32 1.613-4.395 2.574-6.799 3.148l-.012.65c-.013.599-.02 1.07-.022 1.477.004.659.024 1.194.07 1.782.362 4.74 2.325 7.346 6.763 8.95 4.437-1.604 6.401-4.21 6.763-8.95.045-.587.066-1.123.07-1.788-.002-.4-.01-.873-.022-1.472l-.013-.65c-2.404-.573-4.478-1.534-6.798-3.147zm0 3.553c.593 0 1.154.194 1.582.547.456.376.708.886.708 1.435v.239h.152c.312 0 .565.253.565.564v4.05c0 .31-.253.564-.565.564H7.974c-.311 0-.564-.253-.564-.565V8.378c0-.311.253-.564.564-.564h.153v-.239c0-.55.251-1.059.708-1.435.427-.353.99-.547 1.582-.547zm0 3.276c-.56 0-1.014.454-1.014 1.014 0 .437.277.81.665.951v.684c0 .187.152.339.339.339h.02c.187 0 .338-.152.338-.34v-.683c.388-.142.665-.514.665-.951 0-.56-.454-1.014-1.013-1.014zm0-2.22c-.68 0-1.235.416-1.235.926v.239h2.47v-.239c0-.51-.555-.926-1.235-.926z" transform="translate(-761 -1732) translate(753 1724) translate(8 8)"/>
                </g>
            </g>
        </g>
    </g>
</svg>
