<svg xmlns="http://www.w3.org/2000/svg" width="32" height="32" viewBox="0 0 32 32">
    <defs>
        <filter id="g0se931k5a" width="197.5%" height="197.5%" x="-48.8%" y="-48.8%" filterUnits="objectBoundingBox">
            <feOffset dy="10" in="SourceAlpha" result="shadowOffsetOuter1"/>
            <feGaussianBlur in="shadowOffsetOuter1" result="shadowBlurOuter1" stdDeviation="5"/>
            <feColorMatrix in="shadowBlurOuter1" result="shadowMatrixOuter1" values="0 0 0 0 0.937254902 0 0 0 0 0.321568627 0 0 0 0 0.505882353 0 0 0 0.4 0"/>
            <feMerge>
                <feMergeNode in="shadowMatrixOuter1"/>
                <feMergeNode in="SourceGraphic"/>
            </feMerge>
        </filter>
    </defs>
    <g fill="none" fill-rule="evenodd">
        <g fill="#FFF" fill-rule="nonzero">
            <g filter="url(#g0se931k5a)" transform="translate(-980 -2583) translate(956 2559)">
                <g>
                    <path d="M15.853 1.465c.295-.21.691-.21.986 0 3.857 2.752 7.206 4.295 11.196 5.16.388.084.666.426.67.824.005.419.015.916.03 1.676.02.95.031 1.7.034 2.345-.006 1.096-.04 1.971-.114 2.936-.627 8.216-4.225 12.888-12.028 15.623-.09.032-.186.048-.28.048-.096 0-.19-.016-.282-.048-7.803-2.735-11.4-7.407-12.028-15.623-.074-.965-.108-1.841-.114-2.927.004-.654.015-1.404.034-2.354.016-.76.025-1.257.03-1.676.004-.398.282-.74.67-.823 3.991-.866 7.34-2.41 11.196-5.16zm.493 1.736C12.706 5.732 9.45 7.24 5.678 8.141l-.02 1.019c-.019.94-.03 1.682-.034 2.319.006 1.034.038 1.874.11 2.797.567 7.437 3.649 11.526 10.612 14.045 6.964-2.519 10.045-6.607 10.613-14.045.07-.922.103-1.762.11-2.807-.003-.628-.015-1.37-.034-2.309-.009-.404-.015-.735-.02-1.02-3.773-.9-7.028-2.408-10.669-4.939zm0 5.575c.93 0 1.812.305 2.482.858.717.59 1.112 1.391 1.112 2.253v.375h.24c.488 0 .885.397.885.885v6.354c0 .49-.397.886-.886.886h-7.665c-.49 0-.886-.397-.886-.886v-6.354c0-.488.397-.885.886-.885h.239v-.375c0-.862.394-1.662 1.112-2.253.67-.553 1.552-.858 2.481-.858zm0 5.142c-.878 0-1.59.712-1.59 1.59 0 .687.435 1.27 1.043 1.494v1.072c0 .294.239.532.532.532h.03c.294 0 .532-.238.532-.532v-1.072c.609-.223 1.043-.807 1.043-1.493 0-.879-.711-1.591-1.59-1.591zm0-3.484c-1.067 0-1.937.652-1.937 1.453v.375h3.875v-.375c0-.801-.87-1.453-1.938-1.453z" transform="translate(24.308 24.308)"/>
                </g>
            </g>
        </g>
    </g>
</svg>
