<svg xmlns="http://www.w3.org/2000/svg" width="32" height="32" viewBox="0 0 32 32">
    <defs>
        <filter id="fno8gtxgda" width="221.9%" height="221.9%" x="-60.9%" y="-60.9%" filterUnits="objectBoundingBox">
            <feOffset dy="10" in="SourceAlpha" result="shadowOffsetOuter1"/>
            <feGaussianBlur in="shadowOffsetOuter1" result="shadowBlurOuter1" stdDeviation="5"/>
            <feColorMatrix in="shadowBlurOuter1" result="shadowMatrixOuter1" values="0 0 0 0 0.937254902 0 0 0 0 0.321568627 0 0 0 0 0.505882353 0 0 0 0.4 0"/>
            <feMerge>
                <feMergeNode in="shadowMatrixOuter1"/>
                <feMergeNode in="SourceGraphic"/>
            </feMerge>
        </filter>
    </defs>
    <g fill="none" fill-rule="evenodd">
        <g fill="#FFF" fill-rule="nonzero">
            <g>
                <g filter="url(#fno8gtxgda)" transform="translate(-1799 -328) translate(528 200) translate(1255 112)">
                    <g>
                        <path d="M6.695 5.767l.028.107.742 3.767c.095.48-.217.948-.697 1.043-.443.087-.873-.172-1.012-.591l-.028-.108-.331-1.678C2.594 12.286 2.28 17.641 4.8 22.015c3.507 6.09 11.24 8.192 17.273 4.7.424-.245.965-.1 1.21.325.244.424.1.967-.324 1.212-6.882 3.983-15.698 1.587-19.693-5.349-2.861-4.969-2.513-11.05.659-15.584l-1.666.32c-.48.092-.944-.223-1.036-.705-.085-.444.177-.875.596-1.01l.107-.028 3.762-.722c.442-.084.87.176 1.007.593zm21.489 2.715c2.857 4.961 2.515 11.035-.649 15.57l1.59-.307c.48-.092.945.224 1.037.705.084.445-.177.875-.596 1.011l-.108.028-3.762.721c-.441.085-.869-.175-1.006-.592l-.029-.108-.742-3.766c-.094-.481.218-.948.697-1.043.443-.088.874.172 1.012.59l.029.109.345 1.749c2.85-3.988 3.182-9.38.648-13.78-3.507-6.089-11.24-8.191-17.273-4.7-.424.246-.965.1-1.21-.324-.244-.425-.1-.968.324-1.213C15.373-.85 24.19 1.546 28.184 8.482zm-12.435.763c.575 0 1.043.407 1.043.907v.485l.217.075c.562.192.914.357 1.395.774.206.168.315.385.315.628 0 .252-.097.472-.29.652-.2.186-.467.289-.753.289-.278 0-.53-.091-.728-.263-.443-.386-.74-.454-1.2-.454-.74 0-1.343.542-1.343 1.208 0 .666.603 1.208 1.344 1.208.918 0 1.78.323 2.425.91.638.579.989 1.347.989 2.162 0 1.247-.873 2.387-2.172 2.835l-.216.075v.501c0 .5-.468.907-1.043.907-.576 0-1.044-.407-1.044-.907v-.506l-.221-.072c-.713-.232-1.404-.687-1.998-1.314-.178-.19-.262-.42-.238-.65.025-.25.15-.462.37-.63.184-.145.424-.225.675-.225.319 0 .613.119.806.325.51.55 1.096.852 1.65.852.741 0 1.344-.542 1.344-1.208 0-.666-.603-1.207-1.344-1.207-1.882 0-3.414-1.364-3.414-3.039 0-1.247.873-2.386 2.171-2.834l.217-.075v-.502c0-.5.468-.907 1.043-.907z" transform="translate(16.308 16.308)"/>
                    </g>
                </g>
            </g>
        </g>
    </g>
</svg>
