<svg xmlns="http://www.w3.org/2000/svg" width="20" height="20" viewBox="0 0 20 20">
    <g fill="none" fill-rule="evenodd">
        <g fill="#62C3CC">
            <g>
                <g>
                    <path d="M1.483 12.309c.358 0 .65.291.65.65 0 2.706 2.202 4.908 4.908 4.908.359 0 .65.291.65.65 0 .358-.291.65-.65.65-3.423 0-6.207-2.785-6.207-6.208 0-.359.29-.65.649-.65zm17.034 0c.358 0 .65.292.65.65 0 3.423-2.785 6.207-6.208 6.207-.358 0-.65-.29-.65-.65 0-.357.292-.649.65-.649 2.706 0 4.908-2.202 4.908-4.908 0-.358.291-.65.65-.65zm-4.252-2.287c.176 0 .347.073.468.2.122.126.188.3.181.476-.106 2.65-2.264 4.725-4.914 4.725s-4.808-2.075-4.914-4.725c-.007-.176.059-.35.18-.476.123-.128.294-.2.47-.2zm-.74 1.3h-7.05c.378 1.652 1.82 2.802 3.525 2.802 1.704 0 3.147-1.15 3.526-2.803zm-3.39-5.18c.358 0 .65.29.65.649v1.006c0 .358-.292.65-.65.65h-.35c-.359 0-.65-.292-.65-.65 0-.241.136-.465.35-.576v-.43c0-.358.291-.65.65-.65zM7.04.833c.359 0 .65.29.65.65 0 .357-.291.648-.65.648-2.706 0-4.908 2.202-4.908 4.909 0 .358-.291.65-.65.65-.358 0-.65-.292-.65-.65C.833 3.618 3.618.834 7.041.834zm5.918 0c3.423 0 6.207 2.784 6.207 6.207 0 .358-.29.65-.649.65-.358 0-.65-.292-.65-.65 0-2.707-2.202-4.909-4.908-4.909-.358 0-.65-.29-.65-.649 0-.358.292-.65.65-.65zm-.58 4.188l.092.014c.042.006.085.02.128.036.042.018.082.04.12.066.038.027.074.054.105.086.03.028.058.061.088.105.025.038.045.079.063.12.02.046.033.09.04.13.01.043.014.088.014.138 0 .184-.074.363-.205.491-.031.032-.067.061-.104.087-.039.024-.079.046-.12.064-.042.018-.085.03-.13.04-.046.008-.091.014-.137.014-.181 0-.361-.075-.493-.205-.13-.129-.203-.308-.203-.491 0-.184.074-.364.203-.493.035-.033.069-.06.107-.086.038-.025.078-.047.12-.065.034-.013.08-.03.133-.038.08-.018.185-.02.27 0zm-4.847.013c.21-.046.466.028.626.189.032.032.062.068.088.105.024.039.046.08.063.121.018.042.03.085.04.128.01.045.014.09.014.139 0 .182-.075.361-.205.49-.031.033-.067.062-.104.088-.04.025-.08.047-.12.064-.042.018-.085.03-.13.04-.045.008-.091.014-.137.014-.046 0-.091-.006-.137-.014-.044-.01-.089-.022-.13-.04-.041-.017-.083-.04-.12-.063-.04-.027-.074-.056-.106-.088-.13-.129-.203-.308-.203-.491 0-.184.074-.364.203-.493.032-.032.067-.06.105-.086.036-.024.077-.046.122-.065.042-.016.086-.03.131-.038z" transform="translate(-536 -1732) translate(528 1724) translate(8 8)"/>
                </g>
            </g>
        </g>
    </g>
</svg>
