<svg xmlns="http://www.w3.org/2000/svg" width="20" height="20" viewBox="0 0 20 20">
    <g fill="none" fill-rule="evenodd">
        <g fill="#62C3CC">
            <g>
                <g>
                    <path d="M13.382 6.304v7.726H11.98l-.095-.746c-.303.504-.853.883-1.609.883-1.222 0-2.213-1.057-2.213-2.766 0-1.697 1.084-2.777 2.213-2.777.792 0 1.242.245 1.498.635V6.304h1.607zm3.464 2.321c1.656 0 2.707 1.052 2.707 2.766 0 1.656-1.115 2.766-2.707 2.766-1.657 0-2.708-1.052-2.708-2.766 0-1.61 1.124-2.766 2.708-2.766zM4.394 6.011l-.39 1.331s-.701-.173-1.068.058c-.367.231-.332.646-.332.646v.717h.994v1.202h-.995v4.07H.997v-4.06H0V8.77h.997v-.677s-.035-.957.678-1.67c.714-.714 2.162-.683 2.719-.412zm2.944 2.754v5.27H6.75v-2.308h-.42v2.307h-.586V9.962H4.11V8.765h3.227zm9.514 1.045c-.675 0-1.05.676-1.05 1.584 0 .909.363 1.583 1.05 1.583.663 0 1.05-.624 1.05-1.583 0-.896-.359-1.584-1.05-1.584zm-6.05.077c-.72 0-1.117.666-1.117 1.487 0 .82.394 1.486 1.117 1.486.526 0 .844-.341.973-.9v-1.217c-.144-.55-.508-.856-.973-.856zm8.72-1.9l.154.437.154-.436H20v.61h-.11v-.493l-.165.493h-.096l-.168-.493v.493h-.11v-.61h.172zm-.272 0v.103h-.196v.508h-.119V8.09h-.196v-.102h.511zM6.54 6.193c.496 0 .899.41.899.916s-.403.916-.9.916c-.496 0-.899-.41-.899-.916s.403-.916.9-.916z" transform="translate(-581 -1732) translate(573 1724) translate(8 8)"/>
                </g>
            </g>
        </g>
    </g>
</svg>
