<svg xmlns="http://www.w3.org/2000/svg" width="36" height="36" viewBox="0 0 36 36">
    <g fill="none" fill-rule="evenodd">
        <g fill="#62C3CC">
            <g>
                <g>
                    <g>
                        <path d="M27.377 1.5c2.277 0 4.123 1.842 4.123 4.114v24.772c0 2.272-1.846 4.114-4.123 4.114H8.623c-2.277 0-4.123-1.842-4.123-4.114V5.614C4.5 3.342 6.346 1.5 8.623 1.5h18.754zm2.013 23.397H6.609v5.489c0 1.11.902 2.01 2.014 2.01h18.754c1.112 0 2.014-.9 2.014-2.01l-.001-5.489zm-8.6 1.403c1.352 0 2.448 1.094 2.448 2.444 0 1.35-1.096 2.444-2.449 2.444h-5.578c-1.353 0-2.45-1.094-2.45-2.444 0-1.35 1.097-2.444 2.45-2.444h5.578zm0 2.104h-5.58c-.187 0-.339.152-.339.34 0 .187.152.339.34.339h5.578c.188 0 .34-.152.34-.34 0-.187-.152-.339-.34-.339zm8.6-17.368H6.609v11.756H29.39V11.036zm-2.013-7.431H8.623c-1.112 0-2.014.9-2.014 2.01V8.93H29.39V5.614c0-1.11-.9-2.01-2.013-2.01zm-8.851 1.618c.582 0 1.054.47 1.054 1.052 0 .581-.472 1.053-1.054 1.053h-4.012c-.583 0-1.055-.472-1.055-1.053s.472-1.052 1.055-1.052zm3.658 0c.582 0 1.054.47 1.054 1.052 0 .581-.472 1.053-1.054 1.053h-.698c-.582 0-1.054-.472-1.054-1.053s.472-1.052 1.054-1.052z" transform="translate(-538 -645) translate(528 523) translate(0 112) translate(10 10)"/>
                    </g>
                </g>
            </g>
        </g>
    </g>
</svg>
