<svg xmlns="http://www.w3.org/2000/svg" width="20" height="20" viewBox="0 0 20 20">
    <g fill="none" fill-rule="evenodd">
        <g fill="#62C3CC">
            <g>
                <g>
                    <path d="M9.047.784c.201 0 .414.011.67.034.108.01.213.02.318.032l.049.007c3.313.42 6.092 2.881 6.915 6.123l.028.109c.032.135.063.27.089.408.036.19.065.381.088.574l.004.041.01.11.005.06c.025.267.037.501.037.715 0 .16-.005.317-.014.474-.002.047-.007.093-.011.139l-.015.166c-.004.055-.008.109-.014.163-.005.048-.041.293-.041.293l-.025.167c-.01.062-.024.123-.037.185 0 0-.045.227-.054.265-.017.073-.037.147-.057.22l-.003.014.187.09c1.413.716 2.385 2.181 2.385 3.87 0 2.395-1.948 4.342-4.341 4.342-1.732 0-3.226-1.022-3.922-2.492-.207.06-.418.111-.63.155-.17.034-.326.059-.481.081l-.062.01c-.149.02-.3.033-.45.045l-.085.008c-.18.012-.361.019-.543.019-.183 0-.364-.007-.544-.019l-.084-.008c-.152-.012-.302-.025-.45-.045l-.063-.01c-.155-.022-.31-.047-.463-.078-.851-.172-1.652-.47-2.396-.887l-.115.01c-.015.01-.028.023-.042.036-.014.014-.027.026-.04.032-1.515.794-1.68 2.822-1.681 2.843-.024.303-.28.54-.583.54h-.06l-.037-.001c-.159-.013-.3-.084-.402-.203-.102-.12-.152-.27-.14-.426.008-.094.211-2.319 1.86-3.51l.006-.164c-.227-.188-.446-.39-.65-.6-.104-.107-.204-.215-.3-.325-.1-.114-.193-.227-.282-.34-.1-.13-.184-.242-.264-.357l-.022-.032c-.076-.11-.151-.223-.223-.338l-.03-.05c-.066-.11-.133-.22-.195-.333l-.035-.068c-.058-.109-.115-.217-.17-.33l-.038-.085c-.05-.106-.1-.213-.145-.323l-.041-.107c-.042-.104-.083-.208-.12-.313l-.054-.165c-.03-.088-.059-.176-.085-.265l-.052-.197c-.022-.081-.044-.162-.063-.245-.009-.037-.016-.076-.023-.113l-.029-.14-.04-.197c-.007-.05-.06-.41-.065-.46-.007-.056-.011-.114-.015-.171l-.013-.15C.855 9.57.849 9.52.847 9.471c-.009-.157-.014-.315-.014-.474 0-.212.012-.44.037-.715l.005-.059.01-.11.005-.043c.022-.192.05-.383.087-.573.026-.138.058-.274.09-.41l.027-.105C1.917 3.739 4.696 1.278 8.01.857L8.058.85c.105-.012.21-.023.316-.032.258-.023.471-.034.673-.034zm6.173 11.021c-1.786 0-3.24 1.453-3.24 3.239 0 1.786 1.454 3.239 3.24 3.239 1.785 0 3.239-1.453 3.239-3.24 0-1.785-1.454-3.238-3.24-3.238zm.018.965c.325.02.583.287.583.611v1.063h1.061c.325 0 .591.257.611.58v.038c-.02.324-.286.582-.611.582h-1.061v1.062c0 .325-.258.592-.583.61v.002h-.036c-.325-.02-.583-.287-.583-.612v-1.062h-1.062c-.325 0-.59-.258-.61-.582h-.001v-.037c.02-.324.286-.581.611-.581h1.062V13.38c0-.324.258-.59.583-.61v-.001h.036zM9.047 1.956c-.196 0-.4.01-.643.033l-.15.015c-2.412.271-4.552 1.815-5.585 4.028-.44.958-.664 1.954-.664 2.965 0 3.883 3.159 7.042 7.042 7.042.658 0 1.293-.097 1.897-.267-.04-.237-.065-.48-.065-.728 0-2.394 1.947-4.341 4.34-4.341.218 0 .43.02.638.052.145-.563.23-1.15.23-1.758 0-1.012-.223-2.007-.664-2.96-1.032-2.218-3.172-3.761-5.584-4.033l-.146-.015c-.246-.023-.45-.033-.646-.033zm3.322 5.583c.122 0 .239.038.338.109.127.09.214.228.24.38.01.06.231 1.486-.594 2.63-.515.712-1.302 1.156-2.339 1.317-.23.036-.458.055-.674.055-.726 0-1.368-.206-1.908-.611-1.2-.904-1.419-2.497-1.427-2.564-.022-.169.032-.339.146-.465.108-.12.27-.19.454-.194.05.002.106.003.165.003 1.777 0 5.466-.645 5.5-.651.033-.006.066-.009.1-.009zm-.689 1.294c-.97.154-2.806.426-4.192.51l-.09.145c.185.43.433.765.74.995.334.252.728.375 1.204.375.155 0 .32-.014.492-.04 1.543-.24 1.894-1.275 1.966-1.87zm-4.499-3.98c.419 0 .759.341.759.76 0 .417-.34.758-.759.758-.418 0-.758-.34-.758-.759 0-.418.34-.758.758-.758zm3.309 0c.418 0 .758.341.758.76 0 .417-.34.758-.758.758s-.759-.34-.759-.759c0-.418.34-.758.759-.758z" transform="translate(-626 -1732) translate(618 1724) translate(8 8)"/>
                </g>
            </g>
        </g>
    </g>
</svg>
