<svg xmlns="http://www.w3.org/2000/svg" width="36" height="36" viewBox="0 0 36 36">
    <g fill="none" fill-rule="evenodd">
        <g fill="#62C3CC">
            <g>
                <g>
                    <g>
                        <g>
                            <path d="M3 13.125c-.621 0-1.125-.504-1.125-1.125V8.02c0-3.388 2.757-6.145 6.147-6.145H12c.621 0 1.125.504 1.125 1.125S12.621 4.125 12 4.125H8.022c-2.15 0-3.897 1.747-3.897 3.896V12c0 .621-.504 1.125-1.125 1.125m30 0c-.621 0-1.125-.504-1.125-1.125V8.02c0-2.147-1.747-3.895-3.895-3.895H24c-.621 0-1.125-.504-1.125-1.125S23.379 1.875 24 1.875h3.98c3.388 0 6.145 2.757 6.145 6.146V12c0 .621-.504 1.125-1.125 1.125m-21 21H8.022c-3.39 0-6.147-2.757-6.147-6.145V24c0-.621.504-1.125 1.125-1.125s1.125.504 1.125 1.125v3.98c0 2.148 1.747 3.895 3.897 3.895H12c.621 0 1.125.504 1.125 1.125s-.504 1.125-1.125 1.125m15.98 0H24c-.62 0-1.125-.504-1.125-1.125s.504-1.125 1.125-1.125h3.98c2.148 0 3.895-1.747 3.895-3.895V24c0-.621.504-1.125 1.125-1.125s1.125.504 1.125 1.125v3.98c0 3.388-2.757 6.145-6.145 6.145m5.02-15H3c-.621 0-1.125-.504-1.125-1.125S2.379 16.875 3 16.875h30c.621 0 1.125.504 1.125 1.125s-.504 1.125-1.125 1.125" transform="translate(-946 -322) translate(528 200) translate(0 112) translate(408) translate(10 10)"/>
                        </g>
                    </g>
                </g>
            </g>
        </g>
    </g>
</svg>
