<svg xmlns="http://www.w3.org/2000/svg" width="20" height="20" viewBox="0 0 20 20">
    <g fill="none" fill-rule="evenodd">
        <g fill="#62C3CC">
            <g>
                <g>
                    <path d="M17.09.833c1.145 0 2.077.93 2.077 2.072v1.76c0 1.142-.932 2.07-2.076 2.07h-2.792l-.45.378c.51.976.789 2.063.789 3.171 0 2.13-.976 4.036-2.504 5.3 1.41 1.015 1.572 2.882 1.58 2.968.023.314-.213.589-.528.613l-.045.002c-.296 0-.546-.227-.57-.526-.002-.031-.157-1.661-1.35-2.285-.04-.02-.067-.052-.1-.08-1 .565-2.155.892-3.386.892-1.22 0-2.365-.32-3.36-.877-.028.022-.05.049-.08.065-1.21.632-1.35 2.266-1.351 2.283-.023.3-.274.528-.57.528l-.045-.002c-.314-.024-.55-.298-.527-.613.007-.085.169-1.932 1.556-2.95-1.54-1.264-2.525-3.178-2.525-5.318C.833 6.49 3.93 3.4 7.735 3.4c.562 0 1.117.078 1.658.21v-.705c0-1.142.931-2.072 2.076-2.072zm-9.355 3.71c-3.174 0-5.756 2.575-5.756 5.741 0 3.166 2.582 5.742 5.756 5.742 3.175 0 5.757-2.576 5.757-5.742 0-.838-.194-1.661-.545-2.416l-.573.48c-.105.089-.236.134-.368.134-.096 0-.193-.024-.28-.074-.21-.117-.323-.35-.286-.584l.169-1.089h-.14c-1.112 0-2.016-.878-2.067-1.976-.042-.001-.083.003-.125-.01-.5-.137-1.018-.206-1.542-.206zM4.986 8.99l.09.009c.02.003 1.149.2 2.36.354l.43.052c.715.083 1.418.142 1.898.129.166.004.327.065.439.189.11.122.163.289.143.453-.008.057-.19 1.407-1.219 2.18-.464.348-1.011.523-1.635.523-.185 0-.376-.016-.573-.046-.885-.138-1.556-.516-1.997-1.125-.71-.98-.516-2.19-.508-2.24.025-.151.11-.285.234-.373.124-.088.278-.123.428-.096zm.55 1.242c.067.55.383 1.29 1.56 1.472.554.086.993.002 1.342-.26.285-.214.47-.518.585-.789-1.137-.069-2.638-.288-3.487-.423zm3.747-3.464c.396 0 .716.319.716.714 0 .393-.32.713-.716.713-.395 0-.715-.32-.715-.713 0-.395.32-.714.715-.714zm-2.745 0c.396 0 .715.319.715.714 0 .393-.32.713-.715.713-.396 0-.716-.32-.716-.713 0-.395.32-.714.716-.714zM17.09 1.976h-5.622c-.514 0-.932.417-.932.929v1.76c0 .512.418.929.932.929h.683c.21 0 .404.093.534.257.123.155.172.352.134.545l-.015.1.807-.677c.231-.16.446-.225.667-.225h2.812c.512 0 .93-.417.93-.93v-1.76c0-.511-.418-.928-.93-.928zm-4.915 1.098c.363 0 .657.293.657.655 0 .362-.294.655-.657.655-.363 0-.657-.293-.657-.655 0-.362.294-.655.657-.655zm4.207 0c.363 0 .657.293.657.655 0 .362-.294.655-.657.655-.362 0-.657-.293-.657-.655 0-.362.295-.655.657-.655zm-2.104 0c.363 0 .658.293.658.655 0 .362-.295.655-.658.655-.362 0-.657-.293-.657-.655 0-.362.295-.655.657-.655z" transform="translate(-671 -1732) translate(663 1724) translate(8 8)"/>
                </g>
            </g>
        </g>
    </g>
</svg>
