<svg xmlns="http://www.w3.org/2000/svg" width="20" height="20" viewBox="0 0 20 20">
    <g fill="none" fill-rule="evenodd">
        <g fill="#474747" fill-rule="nonzero">
            <g>
                <g>
                    <g>
                        <g>
                            <path d="M11.064 0c1.772.003 2.154.018 3.067.061 1.063.047 1.79.22 2.426.465.665.25 1.27.645 1.77 1.153.513.5.904 1.102 1.158 1.774.246.633.418 1.364.465 2.426.04.915.049 1.295.05 3.095v1.822c-.002 2.002-.016 2.375-.058 3.328-.047 1.062-.219 1.79-.465 2.426-.52 1.344-1.583 2.407-2.927 2.926-.633.247-1.364.419-2.427.465-.915.04-1.295.055-3.096.058H8.972c-1.8-.003-2.18-.017-3.095-.058-1.063-.046-1.79-.218-2.427-.465-.665-.25-1.27-.644-1.77-1.152-.509-.5-.903-1.102-1.157-1.774-.247-.633-.419-1.364-.465-2.426-.04-.915-.055-1.295-.058-3.095V8.94c.003-1.772.018-2.154.062-3.066.046-1.062.218-1.79.465-2.426.25-.664.644-1.27 1.152-1.77.5-.512 1.102-.903 1.775-1.157C4.087.276 4.818.104 5.88.058 6.795.018 7.176.003 8.976 0zm-.496 1.816H9.456c-2.165.002-2.508.015-3.486.058-.973.043-1.504.208-1.856.344-.434.16-.825.414-1.149.746-.336.321-.59.715-.75 1.15-.137.35-.301.878-.344 1.855-.042.934-.056 1.291-.058 3.233v1.614c.002 1.941.016 2.296.058 3.233.043.973.207 1.505.344 1.856.16.434.414.825.746 1.149.32.332.715.586 1.15.746.35.137.879.301 1.856.344.934.042 1.291.056 3.234.058h1.613c1.942-.002 2.297-.016 3.234-.058.974-.043 1.505-.207 1.857-.344.871-.336 1.563-1.027 1.9-1.899.136-.351.3-.879.343-1.856.042-.937.056-1.288.058-3.23V9.204c-.002-1.942-.016-2.296-.058-3.234-.043-.973-.207-1.504-.344-1.856-.16-.434-.414-.824-.746-1.149-.32-.332-.716-.586-1.15-.746-.35-.136-.879-.3-1.856-.344-.973-.043-1.316-.056-3.484-.058zm-.564 3.047c2.837 0 5.139 2.302 5.139 5.138 0 2.837-2.302 5.138-5.14 5.138-2.837 0-5.139-2.3-5.139-5.138 0-2.836 2.302-5.138 5.14-5.138zm0 1.806C8.163 6.669 6.67 8.16 6.67 10c0 1.84 1.493 3.333 3.334 3.333 1.84 0 3.333-1.492 3.333-3.333 0-1.84-1.493-3.332-3.333-3.332zm5.342-3.208c.663 0 1.2.537 1.2 1.2 0 .662-.537 1.199-1.2 1.199-.663 0-1.2-.537-1.2-1.2 0-.662.537-1.2 1.2-1.2z" transform="translate(-1271 -4787) translate(0 4528) translate(0 32) translate(1271 227)"/>
                        </g>
                    </g>
                </g>
            </g>
        </g>
    </g>
</svg>
