<svg xmlns="http://www.w3.org/2000/svg" xmlns:xlink="http://www.w3.org/1999/xlink" width="82" height="82" viewBox="0 0 82 82">
    <defs>
        <circle id="us8pyxgcja" cx="41" cy="41" r="41"/>
    </defs>
    <g fill="none" fill-rule="evenodd">
        <g>
            <g>
                <g transform="translate(-404 -240) translate(364 190) translate(40 50)">
                    <mask id="273d3y65ab" fill="#fff">
                        <use xlink:href="#us8pyxgcja"/>
                    </mask>
                    <use fill="#FFF" xlink:href="#us8pyxgcja"/>
                    <g mask="url(#273d3y65ab)">
                        <g>
                            <path fill="#78CFD8" d="M86.05 41c0 22.643-18.357 41-41 41-22.644 0-41-18.357-41-41s18.356-41 41-41c22.643 0 41 18.357 41 41" transform="translate(-4.05)"/>
                            <g>
                                <path fill="#553B64" d="M23.196 49.893c2.046-2.336 2.073-12.807 2.073-12.807 1.696 5.74.478 13.145.478 13.145 9.607 4.193 20.124 2.28 20.124 2.28s-17.992 1.721 0 0c17.99-1.72 20.85-4.145 20.85-4.145 1.599-4.306 1.003-14.535.116-21.053C63.289 1.241 51.167-.582 41.676.111c-19.217 1.4-20.768 22.562-20.621 31.11.172 10.085-3.57 16.36-3.57 16.36s2.378 2.866 5.711 2.312" transform="translate(-4.05) translate(0 10)"/>
                                <path fill="#314148" d="M52.624 49.793s-3.964-1.799-8.256-1.13c-4.294.67-6.948 1.415-6.948 1.415l.384 4.13 13.619-.335 1.2-4.08z" transform="translate(-4.05) translate(0 10)"/>
                                <path fill="#FFCEB3" d="M49.92 40.837l.51 14.16c-1.767 2.958-10.138 3.01-11.76.708l.29-12.246" transform="translate(-4.05) translate(0 10)"/>
                                <path fill="#E3BCA6" d="M50.084 44.965l.053 1.927s-2.748 2.573-5.588 2.538c-2.837-.035-5.671-2.538-5.671-2.538l.043-2.171s6.907 2.058 11.163.244" transform="translate(-4.05) translate(0 10)"/>
                                <path fill="#FFCEB3" d="M57.202 33.677c.395.746 2.401-.348 2.401-.348 5.076-1.807 3.186-7.158 3.186-7.158-1.874-3.11-5.381-.164-5.381-.164l-.206 7.67zM30.897 34.35c-.395.747-2.4-.347-2.4-.347-3.508-1.265-2.422-6.009-2.422-6.009 1.25-3.277 4.616-1.313 4.616-1.313l.206 7.67z" transform="translate(-4.05) translate(0 10)"/>
                                <path fill="#FFCEB3" d="M34.591 44.138c-6.87-4.683-5.17-13.877-5.228-19.308-.064-5.878 10.25-.498 22.643-5.84 1.77-.764 4.51 2.41 6.296.947 0 0 .829.793 1.19 8.18l.012 2.145s.663 10.997-7.572 14.793c0 0-9.114 4.691-17.34-.917M50.385 53.849c-11.33-1.113-16.845.402-26.629 5.084-1.327.635 3.878 6.41 7.526 8.081 9.839 4.508 15.257 4.47 23.457 1.564 6.06-2.15 13.063-9.389 12.082-9.8-5.29-2.216-9.96-4.293-16.436-4.93" transform="translate(-4.05) translate(0 10)"/>
                                <path fill="#383358" d="M38.821 29.929c.074.666-.406 1.266-1.072 1.34-.667.073-1.266-.408-1.339-1.074-.073-.666.406-1.265 1.073-1.339.665-.073 1.265.407 1.338 1.073M52.722 29.591c.074.666-.406 1.266-1.073 1.34-.665.073-1.265-.407-1.338-1.074-.074-.665.407-1.265 1.072-1.339.666-.073 1.266.407 1.34 1.073" transform="translate(-4.05) translate(0 10)"/>
                                <path stroke="#383358" stroke-linecap="round" stroke-linejoin="round" stroke-width=".94" d="M45.05 30.655L45.211 32.994 43.736 33.158" transform="translate(-4.05) translate(0 10)"/>
                                <path fill="#EC605C" d="M46.127 39.38c-.127 1.243.485 2.059.398 3.213-.099 1.31-1.096 1.694-2.093 1.695-.576 0-1.656-.082-1.838-1.444-.195-1.468.7-2.105.494-3.629-.195-1.445-.244-3.17 1.544-3.17 1.955-.003 1.727 1.072 1.495 3.335" transform="translate(-4.05) translate(0 10)"/>
                                <path fill="#F7BF85" d="M58.835 54.834s-3.17 6.65-12.3 6.508c-12.646.13-13.45-6.395-13.45-6.395s-12.198 2.685-20.15 18.54c0 0 5.075 16.59 31.077 16.644 27.05.056 38.66-22.334 38.66-22.334s-16.537-10.69-23.837-12.963" transform="translate(-4.05) translate(0 10)"/>
                                <path fill="#F9DE99" d="M59.849 54.834s-3.461 7.261-13.43 7.106c-13.808.143-14.686-6.982-14.686-6.982S18.415 57.888 9.732 75.2c0 0 5.541 18.115 33.932 18.174 29.536.06 42.21-24.386 42.21-24.386S67.819 57.315 59.849 54.834" transform="translate(-4.05) translate(0 10)"/>
                                <path fill="#E95962" d="M52.087 65.97c.154 1.267 2.303 19.101-1.657 28.424 0 0 24.103-1.456 38.547-25.472 0 0-16.966-14.448-32.32-14.714 0 0-1.658 9.205-4.57 11.293 0 0-.006.423 0 .47zM36.89 65.501s-2.447 19.232 1.657 28.893c0 0-24.103-1.456-38.547-25.472 0 0 16.966-14.448 32.32-14.714 0 0 1.725 9.87 4.57 11.293" transform="translate(-4.05) translate(0 10)"/>
                                <path fill="#DD5764" d="M0 68.922S16.043 54.89 31.733 54.957L6.388 77.851S.078 70.414 0 68.922M34.813 63.917s-.216 2.49-.56 4.906c-.344 2.416-2.47 15.35-5.846 23.276 0 0-5.317-1.61-7.344-3.159l11.916-27.527s1.53-.354 1.834 2.504" transform="translate(-4.05) translate(0 10)"/>
                                <path stroke="#383358" stroke-linecap="round" stroke-linejoin="round" stroke-width=".845" d="M53.924 28.605s.746 1.328-.273 2.583M35.27 29.013s-.745 1.327.273 2.583" transform="translate(-4.05) translate(0 10)"/>
                                <path fill="#553B64" d="M60.167 21.123s-3.372 1.896-6.007 2.476c0 0-.39-2.465-1.33-3.5 0 0 .377 3.2 0 3.954 0 0-6.668 3.968-26.138 0 0 0 .299-14.063 16.299-13.778 17.404.309 17.176 10.848 17.176 10.848" transform="translate(-4.05) translate(0 10)"/>
                                <path fill="#314148" d="M29.555 57.194c-.497-.425-.437-1.134.124-1.542 2.072-1.51 5.875-2.609 7.289-5.238.923-1.715 1.565 3.575 1.963 6.019.406 2.493.574 4.86-.083 9.551-.108.775-.977.612-1.464.255-4-2.929-6.544-7.945-7.83-9.045" transform="translate(-4.05) translate(0 10)"/>
                                <path fill="#28353A" d="M35.717 57.196s.841.018.739 1.385c-.102 1.368-1.643 5.336-1.643 5.336l-1.318-1.15s.463-4.791 2.222-5.57" transform="translate(-4.05) translate(0 10)"/>
                                <path fill="#314148" d="M58.86 55.882c.234-.584.474-1.122-.18-1.55-2.413-1.584-3.892-1.438-5.578-4.123-1.1-1.75-2.423 2.57-2.821 5.007-.382 2.332-.57 5.962.057 10.127.1.672 1.133.583 1.748.158 2.549-1.762 5.106-5.466 6.773-9.619" transform="translate(-4.05) translate(0 10)"/>
                                <path fill="#FCC4A0" d="M56.864 42.266s1.899-5.184 3.078-4.909c.693.163.503 3.246-.561 6.04-1.326 3.483-3.784 7.115-3.986 8.705 0 0-2.976 2.385-1.485-4.084.519-2.25 2.954-5.752 2.954-5.752" transform="translate(-4.05) translate(0 10)"/>
                                <path fill="#E8B69A" d="M54.883 45.573c.88-1.723 1.981-3.307 1.981-3.307s1.899-5.184 3.077-4.909c0 0-.755.165-1.425 2.71s-3.633 5.506-3.633 5.506" transform="translate(-4.05) translate(0 10)"/>
                                <path fill="#FCC4A0" d="M55.404 38.724c.473-.047.837 3.135.71 4.733-.214 2.688-1.662 6.945-1.598 7.587 0 0-2.142.289-2.724-2.873-.117-.632 1.072-1.589 2.003-3.868.95-2.325.114-5.427 1.61-5.579M57.066 48.099s-.626 1.723-.239 2.693c.388.97 1.79 3.196 1.79 3.196l-4.54-.27 1.005-3.454 1.984-2.165z" transform="translate(-4.05) translate(0 10)"/>
                                <path fill="#E8B69A" d="M52.294 47.014c.408-.617.994-1.467 1.5-2.71.879-2.15.232-4.965 1.31-5.497 0 0-.172 1.157-.221 2.438-.048 1.28-.7 3.86-1.391 4.915-.69 1.054-1.198.854-1.198.854" transform="translate(-4.05) translate(0 10)"/>
                                <path fill="#FFC8A9" d="M51.516 57.406s-4.147-2.122-2.666-9c.344-1.599 1.246-2.841 1.58-3.969 1.1-3.719.91-3.678 1.904-3.784.915-.096.18 4.245.265 5.991.034.693.214 3.4 1.356 4.718 1.73 1.998 4.662 2.626 4.662 2.626s-2.272 3.54-5.255 4.949l-1.846-1.53z" transform="translate(-4.05) translate(0 10)"/>
                                <path fill="#FCC4A0" d="M30.984 42.309s-1.899-5.184-3.077-4.908c-.694.162-.504 3.245.561 6.04 1.326 3.482 3.784 7.114 3.985 8.704 0 0 2.976 2.385 1.485-4.083-.519-2.251-2.954-5.753-2.954-5.753" transform="translate(-4.05) translate(0 10)"/>
                                <path fill="#FCC4A0" d="M30.782 48.142s.78 2.105.392 3.076c-.389.97-1.944 2.813-1.944 2.813l3.887-1.72-.351-2.004-1.984-2.165z" transform="translate(-4.05) translate(0 10)"/>
                                <path fill="#E8B69A" d="M32.965 45.616c-.88-1.723-1.981-3.307-1.981-3.307s-1.899-5.184-3.076-4.908c0 0 .754.164 1.424 2.708.67 2.546 3.633 5.507 3.633 5.507" transform="translate(-4.05) translate(0 10)"/>
                                <path fill="#FCC4A0" d="M32.444 38.768c-.472-.048-.836 3.134-.71 4.733.214 2.687 1.651 5.365 1.586 6.007 0 0 2.155 1.868 2.736-1.294.117-.632-1.072-1.589-2.003-3.868-.949-2.324-.114-5.427-1.61-5.578" transform="translate(-4.05) translate(0 10)"/>
                                <path fill="#E8B69A" d="M35.554 47.058c-.407-.618-.993-1.468-1.5-2.712-.878-2.15-.23-4.964-1.31-5.496 0 0 .173 1.156.221 2.438.048 1.28.701 3.86 1.391 4.915.69 1.054 1.198.855 1.198.855" transform="translate(-4.05) translate(0 10)"/>
                                <path fill="#FFC8A9" d="M36.333 57.45s4.146-2.123 2.666-9c-.345-1.6-1.247-2.842-1.58-3.969-1.1-3.72-1.411-4.115-2.26-3.853-.878.27.176 4.313.09 6.059-.037.754-.61 2.968-1.88 4.4-1.669 1.878-4.138 2.944-4.138 2.944s2.273 3.54 5.256 4.949l1.846-1.53z" transform="translate(-4.05) translate(0 10)"/>
                                <path fill="#E8B69A" d="M35.888 57.818l.445-.369s4.146-2.121 2.667-9c-.346-1.599-1.249-2.842-1.582-3.968-.893-3.023-1.266-3.85-1.83-3.914 0 0 .64.888.876 2.184.237 1.296.713 3.464 1.163 4.324.45.861 1.297 4.449.477 6.426-.821 1.976-3.83 3.484-3.83 3.484l1.614.833z" transform="translate(-4.05) translate(0 10)"/>
                                <path fill="#314148" d="M26.745 53.797s1.489-.909 2.347-1.628c.859-.717 1.585.2 1.585.2s2.146 3.308 4.821 4.708c0 0 .967.293.27 1.58-.697 1.287-1.638 2.26-2.146 3.84 0 0-4.74-2.492-6.877-8.7" transform="translate(-4.05) translate(0 10)"/>
                                <path fill="#E95962" d="M33.961 62.053s.703.8-.372 3.78c-1.075 2.981-4.89 14.43-11.198 23.262 0 0-13.976-6.14-20.068-16.612 0 0 11.775-10.43 17.374-15.15 0 0 4.508-4.654 7.048-3.536 1.625.715 0 3.749 7.216 8.256" transform="translate(-4.05) translate(0 10)"/>
                                <path fill="#DD5764" d="M0 68.922S16.413 54.532 32.102 54.6L6.758 77.494S.448 70.057.37 68.564" transform="translate(-4.05) translate(0 10)"/>
                                <path fill="#D24F5C" d="M34.813 63.917s-.216 2.49-.56 4.906c-.344 2.416-2.47 15.35-5.846 23.276 0 0-5.317-1.61-7.344-3.159l11.916-27.527s1.53-.354 1.834 2.504" transform="translate(-4.05) translate(0 10)"/>
                                <path fill="#28353A" d="M35.717 57.196s.841.018.739 1.385c-.102 1.368-1.643 5.336-1.643 5.336l-1.318-1.15s.463-4.791 2.222-5.57" transform="translate(-4.05) translate(0 10)"/>
                                <path fill="#314148" d="M26.745 53.797s1.489-.909 2.347-1.628c.859-.717 1.585.2 1.585.2s2.146 3.308 4.821 4.708c0 0 .967.293.27 1.58-.697 1.287-1.638 2.26-2.146 3.84 0 0-4.74-2.492-6.877-8.7" transform="translate(-4.05) translate(0 10)"/>
                                <path fill="#E95962" d="M33.961 62.053s.703.8-.372 3.78c-1.075 2.981-4.89 14.43-11.198 23.262 0 0-13.976-6.14-20.068-16.612 0 0 11.775-10.43 17.374-15.15 0 0 4.508-4.654 7.048-3.536 1.625.715 0 3.749 7.216 8.256" transform="translate(-4.05) translate(0 10)"/>
                                <path fill="#D24F5C" d="M87.935 68.408s-15.899-14.269-31.588-14.2l25.345 22.894s6.31-7.437 6.387-8.93M53.122 64.403s.216 2.49.56 4.906c.345 2.416 2.47 15.349 5.846 23.275 0 0 5.318-1.608 7.345-3.159L54.957 61.898s-1.531-.353-1.835 2.505" transform="translate(-4.05) translate(0 10)"/>
                                <path fill="#28353A" d="M51.48 59.067c.102 1.367 1.642 5.592 1.642 5.592l1.318-1.408s-.462-4.79-2.221-5.569c0 0-.842.017-.74 1.385z" transform="translate(-4.05) translate(0 10)"/>
                                <path fill="#314148" d="M61.19 54.282s-1.488-.908-2.346-1.627c-.86-.718-1.585.2-1.585.2s-2.146 3.307-4.822 4.708c0 0-.967.293-.27 1.58.698 1.287 1.638 2.26 2.146 3.84 0 0 4.741-2.493 6.878-8.701" transform="translate(-4.05) translate(0 10)"/>
                                <path fill="#E95962" d="M53.974 62.539s-.702.799.372 3.78c1.075 2.98 4.89 14.429 11.198 23.26 0 0 13.977-6.139 20.068-16.61 0 0-11.775-10.43-17.374-15.15 0 0-4.507-4.654-7.047-3.537-1.626.714 0 3.75-7.217 8.257" transform="translate(-4.05) translate(0 10)"/>
                                <path fill="#FFF" d="M65.662 5.21c-.195.348-.481.848-.863 1.497-.381.65-.808 1.348-1.273 2.089-.471.74-.953 1.477-1.448 2.203-.497.728-.95 1.343-1.36 1.852-.081.017-.19.02-.326.005-.139-.013-.278-.038-.42-.072-.14-.037-.28-.081-.413-.13-.134-.051-.25-.103-.347-.153-.405-.215-.704-.46-.899-.74-.196-.28-.217-.634-.068-1.063.124-.385.36-.946.708-1.682.35-.737.734-1.532 1.159-2.384.421-.855.851-1.695 1.285-2.524.437-.827.815-1.528 1.134-2.103.373-.019.763.014 1.174.103.41.088.79.226 1.136.408.57.3.933.68 1.087 1.13.152.453.064.973-.266 1.563m-11.286 11.3c.346-.62.81-1.035 1.39-1.25.578-.213 1.18-.156 1.807.174.627.33 1.004.79 1.136 1.378.13.588.025 1.192-.32 1.811-.348.62-.812 1.038-1.391 1.252-.58.214-1.18.155-1.806-.175-.627-.33-1.007-.788-1.137-1.376-.132-.589-.025-1.194.32-1.813" transform="translate(-4.05) translate(0 10)"/>
                            </g>
                        </g>
                    </g>
                </g>
            </g>
        </g>
    </g>
</svg>
