<svg xmlns="http://www.w3.org/2000/svg" width="16" height="16" viewBox="0 0 16 16">
    <g fill="none" fill-rule="evenodd">
        <g fill="#474747">
            <g>
                <g>
                    <path d="M6.827 2.427c-2.427 0-4.4 1.973-4.4 4.4 0 2.426 1.973 4.4 4.4 4.4 2.426 0 4.4-1.974 4.4-4.4 0-2.427-1.974-4.4-4.4-4.4m7.626 12.906c-.234 0-.456-.091-.622-.257l-3.315-3.315c-1.061.792-2.36 1.226-3.69 1.226-3.396 0-6.16-2.764-6.16-6.16 0-3.397 2.764-6.16 6.16-6.16 3.397 0 6.16 2.763 6.16 6.16 0 1.328-.433 2.628-1.225 3.689l3.315 3.315c.166.166.257.388.257.622 0 .235-.091.456-.257.623-.167.166-.388.257-.623.257" transform="translate(-1345 -4393) translate(1097 4376) translate(248 17)"/>
                </g>
            </g>
        </g>
    </g>
</svg>
