<svg xmlns="http://www.w3.org/2000/svg" width="27" height="24" viewBox="0 0 27 24">
    <path fill="#ECECEC" fill-rule="nonzero" d="M10 0h4c5.523 0 10 4.477 10 10v14H10C4.477 24 0 19.523 0 14v-4C0 4.477 4.477 0 10 0z" transform="translate(-1293 -5654) translate(897 5654) translate(396)"/>
    <path fill="#62C3CC" d="M9 10c1.105 0 2 .895 2 2s-.895 2-2 2-2-.895-2-2 .895-2 2-2zm8 0c1.105 0 2 .895 2 2s-.895 2-2 2-2-.895-2-2 .895-2 2-2zm8 0c1.105 0 2 .895 2 2s-.895 2-2 2-2-.895-2-2 .895-2 2-2z" transform="translate(-1293 -5654) translate(897 5654) translate(396)"/>
</svg>
