<svg width="24" height="24" viewBox="0 0 24 24" xmlns="http://www.w3.org/2000/svg">
  <path d="M5.115 4.395l.026.097.568 2.88a.677.677 0 01-1.302.36l-.027-.096-.253-1.283a9.762 9.762 0 00-.457 10.482c2.682 4.656 8.596 6.264 13.21 3.594a.676.676 0 01.924.249.68.68 0 01-.247.927c-5.263 3.046-12.005 1.213-15.06-4.09a11.122 11.122 0 01.504-11.917l-1.274.244a.68.68 0 01-.351-1.307l.097-.027 2.877-.551a.677.677 0 01.765.438zm16.437 2.09a11.122 11.122 0 01-.496 11.907l1.217-.234a.68.68 0 01.351 1.307l-.097.026-2.877.552a.677.677 0 01-.765-.438l-.026-.097-.568-2.88a.677.677 0 011.302-.36l.027.096.263 1.34a9.76 9.76 0 00.496-10.54C17.698 2.51 11.784.902 7.17 3.572a.676.676 0 01-.925-.249.68.68 0 01.248-.927c5.263-3.046 12.005-1.213 15.06 4.09zm-9.265.197a5.3 5.3 0 015.2 5.399 5.3 5.3 0 01-5.384 5.213 5.3 5.3 0 01-5.2-5.399 5.3 5.3 0 015.384-5.213zm-.135 2.252c-.24 0-.388.062-.444.186a.499.499 0 00-.048.21l-.002.09v.237c-.374.072-.667.232-.88.479a1.245 1.245 0 00-.318.834c0 .308.078.564.235.764.145.193.343.34.569.425.223.082.447.187.67.236.194.04.384.096.57.166.156.061.234.15.234.262 0 .314-.207.471-.62.471-.217 0-.413-.097-.586-.293-.223-.206-.398-.238-.523-.238-.126 0-.256.009-.356.115-.126.134-.204.333-.204.436 0 .303.204.428.204.428.072.082.2.178.385.285.145.084.298.149.458.194l.162.038v.283c0 .176.02.229.059.316.026.066.08.116.146.14.09.028.185.041.28.038.118 0 .211-.013.281-.039a.287.287 0 00.159-.147.439.439 0 00.052-.206l.002-.094v-.298c.344-.07.66-.236.913-.48.251-.241.377-.563.377-.964 0-.273-.101-.422-.214-.605-.237-.384-.732-.596-.933-.65-.201-.054-.861-.225-.976-.294-.114-.07-.171-.16-.171-.274a.305.305 0 01.142-.266.629.629 0 01.36-.097c.145 0 .44.113.633.2.217.098.555.058.686-.123.13-.18.132-.294.132-.372a.348.348 0 00-.086-.248l-.059-.059-.109-.085a1.698 1.698 0 00-.267-.14 1.95 1.95 0 00-.276-.095l-.152-.035v-.237c0-.129-.005-.149-.016-.215-.011-.067-.055-.13-.13-.19-.075-.058-.188-.088-.34-.089z" fill="#FFF" fill-rule="nonzero"/>
</svg>