<svg xmlns="http://www.w3.org/2000/svg" width="20" height="20" viewBox="0 0 20 20">
    <g fill="none" fill-rule="evenodd">
        <g fill="#474747" fill-rule="nonzero">
            <g>
                <g>
                    <g>
                        <g>
                            <path d="M19.15 3.945c-.542-1.052-1.131-1.246-2.33-1.32-1.197-.088-4.209-.125-6.818-.125-2.613 0-5.626.037-6.822.124-1.196.075-1.786.267-2.334 1.321C.288 4.997 0 6.808 0 9.995v.012c0 3.174.287 4.999.846 6.04.548 1.052 1.136 1.243 2.333 1.332 1.197.076 4.21.121 6.823.121 2.61 0 5.62-.045 6.82-.12 1.198-.089 1.787-.28 2.33-1.332.563-1.04.848-2.865.848-6.04v-.007-.004c0-3.19-.285-5-.85-6.052zM7.5 14.091V5.909L13.75 10 7.5 14.09z" transform="translate(-1371 -4787) translate(0 4528) translate(0 32) translate(1271 227) translate(100)"/>
                        </g>
                    </g>
                </g>
            </g>
        </g>
    </g>
</svg>
